G04 #@! TF.GenerationSoftware,KiCad,Pcbnew,7.0.1-3b83917a11~172~ubuntu22.04.1*
G04 #@! TF.CreationDate,2023-04-09T22:46:25+09:00*
G04 #@! TF.ProjectId,Akashi-15,416b6173-6869-42d3-9135-2e6b69636164,rev?*
G04 #@! TF.SameCoordinates,Original*
G04 #@! TF.FileFunction,Legend,Bot*
G04 #@! TF.FilePolarity,Positive*
%FSLAX46Y46*%
G04 Gerber Fmt 4.6, Leading zero omitted, Abs format (unit mm)*
G04 Created by KiCad (PCBNEW 7.0.1-3b83917a11~172~ubuntu22.04.1) date 2023-04-09 22:46:25*
%MOMM*%
%LPD*%
G01*
G04 APERTURE LIST*
%ADD10C,0.150000*%
%ADD11C,0.120000*%
G04 APERTURE END LIST*
D10*
X169941904Y-136687619D02*
X169941904Y-135687619D01*
X169513333Y-136687619D02*
X169513333Y-136163809D01*
X169513333Y-136163809D02*
X169560952Y-136068571D01*
X169560952Y-136068571D02*
X169656190Y-136020952D01*
X169656190Y-136020952D02*
X169799047Y-136020952D01*
X169799047Y-136020952D02*
X169894285Y-136068571D01*
X169894285Y-136068571D02*
X169941904Y-136116190D01*
X169179999Y-136020952D02*
X168799047Y-136020952D01*
X169037142Y-135687619D02*
X169037142Y-136544761D01*
X169037142Y-136544761D02*
X168989523Y-136640000D01*
X168989523Y-136640000D02*
X168894285Y-136687619D01*
X168894285Y-136687619D02*
X168799047Y-136687619D01*
X168608570Y-136020952D02*
X168227618Y-136020952D01*
X168465713Y-135687619D02*
X168465713Y-136544761D01*
X168465713Y-136544761D02*
X168418094Y-136640000D01*
X168418094Y-136640000D02*
X168322856Y-136687619D01*
X168322856Y-136687619D02*
X168227618Y-136687619D01*
X167894284Y-136020952D02*
X167894284Y-137020952D01*
X167894284Y-136068571D02*
X167799046Y-136020952D01*
X167799046Y-136020952D02*
X167608570Y-136020952D01*
X167608570Y-136020952D02*
X167513332Y-136068571D01*
X167513332Y-136068571D02*
X167465713Y-136116190D01*
X167465713Y-136116190D02*
X167418094Y-136211428D01*
X167418094Y-136211428D02*
X167418094Y-136497142D01*
X167418094Y-136497142D02*
X167465713Y-136592380D01*
X167465713Y-136592380D02*
X167513332Y-136640000D01*
X167513332Y-136640000D02*
X167608570Y-136687619D01*
X167608570Y-136687619D02*
X167799046Y-136687619D01*
X167799046Y-136687619D02*
X167894284Y-136640000D01*
X167037141Y-136640000D02*
X166941903Y-136687619D01*
X166941903Y-136687619D02*
X166751427Y-136687619D01*
X166751427Y-136687619D02*
X166656189Y-136640000D01*
X166656189Y-136640000D02*
X166608570Y-136544761D01*
X166608570Y-136544761D02*
X166608570Y-136497142D01*
X166608570Y-136497142D02*
X166656189Y-136401904D01*
X166656189Y-136401904D02*
X166751427Y-136354285D01*
X166751427Y-136354285D02*
X166894284Y-136354285D01*
X166894284Y-136354285D02*
X166989522Y-136306666D01*
X166989522Y-136306666D02*
X167037141Y-136211428D01*
X167037141Y-136211428D02*
X167037141Y-136163809D01*
X167037141Y-136163809D02*
X166989522Y-136068571D01*
X166989522Y-136068571D02*
X166894284Y-136020952D01*
X166894284Y-136020952D02*
X166751427Y-136020952D01*
X166751427Y-136020952D02*
X166656189Y-136068571D01*
X166179998Y-136592380D02*
X166132379Y-136640000D01*
X166132379Y-136640000D02*
X166179998Y-136687619D01*
X166179998Y-136687619D02*
X166227617Y-136640000D01*
X166227617Y-136640000D02*
X166179998Y-136592380D01*
X166179998Y-136592380D02*
X166179998Y-136687619D01*
X166179998Y-136068571D02*
X166132379Y-136116190D01*
X166132379Y-136116190D02*
X166179998Y-136163809D01*
X166179998Y-136163809D02*
X166227617Y-136116190D01*
X166227617Y-136116190D02*
X166179998Y-136068571D01*
X166179998Y-136068571D02*
X166179998Y-136163809D01*
X164989523Y-135640000D02*
X165846665Y-136925714D01*
X163941904Y-135640000D02*
X164799046Y-136925714D01*
X163179999Y-136020952D02*
X163179999Y-136830476D01*
X163179999Y-136830476D02*
X163227618Y-136925714D01*
X163227618Y-136925714D02*
X163275237Y-136973333D01*
X163275237Y-136973333D02*
X163370475Y-137020952D01*
X163370475Y-137020952D02*
X163513332Y-137020952D01*
X163513332Y-137020952D02*
X163608570Y-136973333D01*
X163179999Y-136640000D02*
X163275237Y-136687619D01*
X163275237Y-136687619D02*
X163465713Y-136687619D01*
X163465713Y-136687619D02*
X163560951Y-136640000D01*
X163560951Y-136640000D02*
X163608570Y-136592380D01*
X163608570Y-136592380D02*
X163656189Y-136497142D01*
X163656189Y-136497142D02*
X163656189Y-136211428D01*
X163656189Y-136211428D02*
X163608570Y-136116190D01*
X163608570Y-136116190D02*
X163560951Y-136068571D01*
X163560951Y-136068571D02*
X163465713Y-136020952D01*
X163465713Y-136020952D02*
X163275237Y-136020952D01*
X163275237Y-136020952D02*
X163179999Y-136068571D01*
X162703808Y-136687619D02*
X162703808Y-136020952D01*
X162703808Y-135687619D02*
X162751427Y-135735238D01*
X162751427Y-135735238D02*
X162703808Y-135782857D01*
X162703808Y-135782857D02*
X162656189Y-135735238D01*
X162656189Y-135735238D02*
X162703808Y-135687619D01*
X162703808Y-135687619D02*
X162703808Y-135782857D01*
X162370475Y-136020952D02*
X161989523Y-136020952D01*
X162227618Y-135687619D02*
X162227618Y-136544761D01*
X162227618Y-136544761D02*
X162179999Y-136640000D01*
X162179999Y-136640000D02*
X162084761Y-136687619D01*
X162084761Y-136687619D02*
X161989523Y-136687619D01*
X161656189Y-136687619D02*
X161656189Y-135687619D01*
X161227618Y-136687619D02*
X161227618Y-136163809D01*
X161227618Y-136163809D02*
X161275237Y-136068571D01*
X161275237Y-136068571D02*
X161370475Y-136020952D01*
X161370475Y-136020952D02*
X161513332Y-136020952D01*
X161513332Y-136020952D02*
X161608570Y-136068571D01*
X161608570Y-136068571D02*
X161656189Y-136116190D01*
X160322856Y-136020952D02*
X160322856Y-136687619D01*
X160751427Y-136020952D02*
X160751427Y-136544761D01*
X160751427Y-136544761D02*
X160703808Y-136640000D01*
X160703808Y-136640000D02*
X160608570Y-136687619D01*
X160608570Y-136687619D02*
X160465713Y-136687619D01*
X160465713Y-136687619D02*
X160370475Y-136640000D01*
X160370475Y-136640000D02*
X160322856Y-136592380D01*
X159846665Y-136687619D02*
X159846665Y-135687619D01*
X159846665Y-136068571D02*
X159751427Y-136020952D01*
X159751427Y-136020952D02*
X159560951Y-136020952D01*
X159560951Y-136020952D02*
X159465713Y-136068571D01*
X159465713Y-136068571D02*
X159418094Y-136116190D01*
X159418094Y-136116190D02*
X159370475Y-136211428D01*
X159370475Y-136211428D02*
X159370475Y-136497142D01*
X159370475Y-136497142D02*
X159418094Y-136592380D01*
X159418094Y-136592380D02*
X159465713Y-136640000D01*
X159465713Y-136640000D02*
X159560951Y-136687619D01*
X159560951Y-136687619D02*
X159751427Y-136687619D01*
X159751427Y-136687619D02*
X159846665Y-136640000D01*
X158941903Y-136592380D02*
X158894284Y-136640000D01*
X158894284Y-136640000D02*
X158941903Y-136687619D01*
X158941903Y-136687619D02*
X158989522Y-136640000D01*
X158989522Y-136640000D02*
X158941903Y-136592380D01*
X158941903Y-136592380D02*
X158941903Y-136687619D01*
X158037142Y-136640000D02*
X158132380Y-136687619D01*
X158132380Y-136687619D02*
X158322856Y-136687619D01*
X158322856Y-136687619D02*
X158418094Y-136640000D01*
X158418094Y-136640000D02*
X158465713Y-136592380D01*
X158465713Y-136592380D02*
X158513332Y-136497142D01*
X158513332Y-136497142D02*
X158513332Y-136211428D01*
X158513332Y-136211428D02*
X158465713Y-136116190D01*
X158465713Y-136116190D02*
X158418094Y-136068571D01*
X158418094Y-136068571D02*
X158322856Y-136020952D01*
X158322856Y-136020952D02*
X158132380Y-136020952D01*
X158132380Y-136020952D02*
X158037142Y-136068571D01*
X157465713Y-136687619D02*
X157560951Y-136640000D01*
X157560951Y-136640000D02*
X157608570Y-136592380D01*
X157608570Y-136592380D02*
X157656189Y-136497142D01*
X157656189Y-136497142D02*
X157656189Y-136211428D01*
X157656189Y-136211428D02*
X157608570Y-136116190D01*
X157608570Y-136116190D02*
X157560951Y-136068571D01*
X157560951Y-136068571D02*
X157465713Y-136020952D01*
X157465713Y-136020952D02*
X157322856Y-136020952D01*
X157322856Y-136020952D02*
X157227618Y-136068571D01*
X157227618Y-136068571D02*
X157179999Y-136116190D01*
X157179999Y-136116190D02*
X157132380Y-136211428D01*
X157132380Y-136211428D02*
X157132380Y-136497142D01*
X157132380Y-136497142D02*
X157179999Y-136592380D01*
X157179999Y-136592380D02*
X157227618Y-136640000D01*
X157227618Y-136640000D02*
X157322856Y-136687619D01*
X157322856Y-136687619D02*
X157465713Y-136687619D01*
X156703808Y-136687619D02*
X156703808Y-136020952D01*
X156703808Y-136116190D02*
X156656189Y-136068571D01*
X156656189Y-136068571D02*
X156560951Y-136020952D01*
X156560951Y-136020952D02*
X156418094Y-136020952D01*
X156418094Y-136020952D02*
X156322856Y-136068571D01*
X156322856Y-136068571D02*
X156275237Y-136163809D01*
X156275237Y-136163809D02*
X156275237Y-136687619D01*
X156275237Y-136163809D02*
X156227618Y-136068571D01*
X156227618Y-136068571D02*
X156132380Y-136020952D01*
X156132380Y-136020952D02*
X155989523Y-136020952D01*
X155989523Y-136020952D02*
X155894284Y-136068571D01*
X155894284Y-136068571D02*
X155846665Y-136163809D01*
X155846665Y-136163809D02*
X155846665Y-136687619D01*
X154656190Y-135640000D02*
X155513332Y-136925714D01*
X154370475Y-136640000D02*
X154275237Y-136687619D01*
X154275237Y-136687619D02*
X154084761Y-136687619D01*
X154084761Y-136687619D02*
X153989523Y-136640000D01*
X153989523Y-136640000D02*
X153941904Y-136544761D01*
X153941904Y-136544761D02*
X153941904Y-136497142D01*
X153941904Y-136497142D02*
X153989523Y-136401904D01*
X153989523Y-136401904D02*
X154084761Y-136354285D01*
X154084761Y-136354285D02*
X154227618Y-136354285D01*
X154227618Y-136354285D02*
X154322856Y-136306666D01*
X154322856Y-136306666D02*
X154370475Y-136211428D01*
X154370475Y-136211428D02*
X154370475Y-136163809D01*
X154370475Y-136163809D02*
X154322856Y-136068571D01*
X154322856Y-136068571D02*
X154227618Y-136020952D01*
X154227618Y-136020952D02*
X154084761Y-136020952D01*
X154084761Y-136020952D02*
X153989523Y-136068571D01*
X153084761Y-136020952D02*
X153084761Y-136687619D01*
X153513332Y-136020952D02*
X153513332Y-136544761D01*
X153513332Y-136544761D02*
X153465713Y-136640000D01*
X153465713Y-136640000D02*
X153370475Y-136687619D01*
X153370475Y-136687619D02*
X153227618Y-136687619D01*
X153227618Y-136687619D02*
X153132380Y-136640000D01*
X153132380Y-136640000D02*
X153084761Y-136592380D01*
X152608570Y-136687619D02*
X152608570Y-136020952D01*
X152608570Y-135687619D02*
X152656189Y-135735238D01*
X152656189Y-135735238D02*
X152608570Y-135782857D01*
X152608570Y-135782857D02*
X152560951Y-135735238D01*
X152560951Y-135735238D02*
X152608570Y-135687619D01*
X152608570Y-135687619D02*
X152608570Y-135782857D01*
X152132380Y-136687619D02*
X152132380Y-135687619D01*
X152037142Y-136306666D02*
X151751428Y-136687619D01*
X151751428Y-136020952D02*
X152132380Y-136401904D01*
X150894285Y-136687619D02*
X150894285Y-136163809D01*
X150894285Y-136163809D02*
X150941904Y-136068571D01*
X150941904Y-136068571D02*
X151037142Y-136020952D01*
X151037142Y-136020952D02*
X151227618Y-136020952D01*
X151227618Y-136020952D02*
X151322856Y-136068571D01*
X150894285Y-136640000D02*
X150989523Y-136687619D01*
X150989523Y-136687619D02*
X151227618Y-136687619D01*
X151227618Y-136687619D02*
X151322856Y-136640000D01*
X151322856Y-136640000D02*
X151370475Y-136544761D01*
X151370475Y-136544761D02*
X151370475Y-136449523D01*
X151370475Y-136449523D02*
X151322856Y-136354285D01*
X151322856Y-136354285D02*
X151227618Y-136306666D01*
X151227618Y-136306666D02*
X150989523Y-136306666D01*
X150989523Y-136306666D02*
X150894285Y-136259047D01*
X150418094Y-136020952D02*
X150418094Y-136687619D01*
X150418094Y-136116190D02*
X150370475Y-136068571D01*
X150370475Y-136068571D02*
X150275237Y-136020952D01*
X150275237Y-136020952D02*
X150132380Y-136020952D01*
X150132380Y-136020952D02*
X150037142Y-136068571D01*
X150037142Y-136068571D02*
X149989523Y-136163809D01*
X149989523Y-136163809D02*
X149989523Y-136687619D01*
X149084761Y-136020952D02*
X149084761Y-136687619D01*
X149322856Y-135640000D02*
X149560951Y-136354285D01*
X149560951Y-136354285D02*
X148941904Y-136354285D01*
X148132380Y-136020952D02*
X148132380Y-136830476D01*
X148132380Y-136830476D02*
X148179999Y-136925714D01*
X148179999Y-136925714D02*
X148227618Y-136973333D01*
X148227618Y-136973333D02*
X148322856Y-137020952D01*
X148322856Y-137020952D02*
X148465713Y-137020952D01*
X148465713Y-137020952D02*
X148560951Y-136973333D01*
X148132380Y-136640000D02*
X148227618Y-136687619D01*
X148227618Y-136687619D02*
X148418094Y-136687619D01*
X148418094Y-136687619D02*
X148513332Y-136640000D01*
X148513332Y-136640000D02*
X148560951Y-136592380D01*
X148560951Y-136592380D02*
X148608570Y-136497142D01*
X148608570Y-136497142D02*
X148608570Y-136211428D01*
X148608570Y-136211428D02*
X148560951Y-136116190D01*
X148560951Y-136116190D02*
X148513332Y-136068571D01*
X148513332Y-136068571D02*
X148418094Y-136020952D01*
X148418094Y-136020952D02*
X148227618Y-136020952D01*
X148227618Y-136020952D02*
X148132380Y-136068571D01*
X147656189Y-136687619D02*
X147656189Y-136020952D01*
X147656189Y-135687619D02*
X147703808Y-135735238D01*
X147703808Y-135735238D02*
X147656189Y-135782857D01*
X147656189Y-135782857D02*
X147608570Y-135735238D01*
X147608570Y-135735238D02*
X147656189Y-135687619D01*
X147656189Y-135687619D02*
X147656189Y-135782857D01*
X147322856Y-136020952D02*
X146941904Y-136020952D01*
X147179999Y-135687619D02*
X147179999Y-136544761D01*
X147179999Y-136544761D02*
X147132380Y-136640000D01*
X147132380Y-136640000D02*
X147037142Y-136687619D01*
X147037142Y-136687619D02*
X146941904Y-136687619D01*
X146608570Y-136687619D02*
X146608570Y-135687619D01*
X146179999Y-136687619D02*
X146179999Y-136163809D01*
X146179999Y-136163809D02*
X146227618Y-136068571D01*
X146227618Y-136068571D02*
X146322856Y-136020952D01*
X146322856Y-136020952D02*
X146465713Y-136020952D01*
X146465713Y-136020952D02*
X146560951Y-136068571D01*
X146560951Y-136068571D02*
X146608570Y-136116190D01*
X145275237Y-136020952D02*
X145275237Y-136687619D01*
X145703808Y-136020952D02*
X145703808Y-136544761D01*
X145703808Y-136544761D02*
X145656189Y-136640000D01*
X145656189Y-136640000D02*
X145560951Y-136687619D01*
X145560951Y-136687619D02*
X145418094Y-136687619D01*
X145418094Y-136687619D02*
X145322856Y-136640000D01*
X145322856Y-136640000D02*
X145275237Y-136592380D01*
X144799046Y-136687619D02*
X144799046Y-135687619D01*
X144799046Y-136068571D02*
X144703808Y-136020952D01*
X144703808Y-136020952D02*
X144513332Y-136020952D01*
X144513332Y-136020952D02*
X144418094Y-136068571D01*
X144418094Y-136068571D02*
X144370475Y-136116190D01*
X144370475Y-136116190D02*
X144322856Y-136211428D01*
X144322856Y-136211428D02*
X144322856Y-136497142D01*
X144322856Y-136497142D02*
X144370475Y-136592380D01*
X144370475Y-136592380D02*
X144418094Y-136640000D01*
X144418094Y-136640000D02*
X144513332Y-136687619D01*
X144513332Y-136687619D02*
X144703808Y-136687619D01*
X144703808Y-136687619D02*
X144799046Y-136640000D01*
X143179999Y-135640000D02*
X144037141Y-136925714D01*
X142894284Y-136401904D02*
X142418094Y-136401904D01*
X142989522Y-136687619D02*
X142656189Y-135687619D01*
X142656189Y-135687619D02*
X142322856Y-136687619D01*
X141989522Y-136687619D02*
X141989522Y-135687619D01*
X141894284Y-136306666D02*
X141608570Y-136687619D01*
X141608570Y-136020952D02*
X141989522Y-136401904D01*
X140751427Y-136687619D02*
X140751427Y-136163809D01*
X140751427Y-136163809D02*
X140799046Y-136068571D01*
X140799046Y-136068571D02*
X140894284Y-136020952D01*
X140894284Y-136020952D02*
X141084760Y-136020952D01*
X141084760Y-136020952D02*
X141179998Y-136068571D01*
X140751427Y-136640000D02*
X140846665Y-136687619D01*
X140846665Y-136687619D02*
X141084760Y-136687619D01*
X141084760Y-136687619D02*
X141179998Y-136640000D01*
X141179998Y-136640000D02*
X141227617Y-136544761D01*
X141227617Y-136544761D02*
X141227617Y-136449523D01*
X141227617Y-136449523D02*
X141179998Y-136354285D01*
X141179998Y-136354285D02*
X141084760Y-136306666D01*
X141084760Y-136306666D02*
X140846665Y-136306666D01*
X140846665Y-136306666D02*
X140751427Y-136259047D01*
X140322855Y-136640000D02*
X140227617Y-136687619D01*
X140227617Y-136687619D02*
X140037141Y-136687619D01*
X140037141Y-136687619D02*
X139941903Y-136640000D01*
X139941903Y-136640000D02*
X139894284Y-136544761D01*
X139894284Y-136544761D02*
X139894284Y-136497142D01*
X139894284Y-136497142D02*
X139941903Y-136401904D01*
X139941903Y-136401904D02*
X140037141Y-136354285D01*
X140037141Y-136354285D02*
X140179998Y-136354285D01*
X140179998Y-136354285D02*
X140275236Y-136306666D01*
X140275236Y-136306666D02*
X140322855Y-136211428D01*
X140322855Y-136211428D02*
X140322855Y-136163809D01*
X140322855Y-136163809D02*
X140275236Y-136068571D01*
X140275236Y-136068571D02*
X140179998Y-136020952D01*
X140179998Y-136020952D02*
X140037141Y-136020952D01*
X140037141Y-136020952D02*
X139941903Y-136068571D01*
X139465712Y-136687619D02*
X139465712Y-135687619D01*
X139037141Y-136687619D02*
X139037141Y-136163809D01*
X139037141Y-136163809D02*
X139084760Y-136068571D01*
X139084760Y-136068571D02*
X139179998Y-136020952D01*
X139179998Y-136020952D02*
X139322855Y-136020952D01*
X139322855Y-136020952D02*
X139418093Y-136068571D01*
X139418093Y-136068571D02*
X139465712Y-136116190D01*
X138560950Y-136687619D02*
X138560950Y-136020952D01*
X138560950Y-135687619D02*
X138608569Y-135735238D01*
X138608569Y-135735238D02*
X138560950Y-135782857D01*
X138560950Y-135782857D02*
X138513331Y-135735238D01*
X138513331Y-135735238D02*
X138560950Y-135687619D01*
X138560950Y-135687619D02*
X138560950Y-135782857D01*
X138084760Y-136306666D02*
X137322856Y-136306666D01*
X136322856Y-136687619D02*
X136894284Y-136687619D01*
X136608570Y-136687619D02*
X136608570Y-135687619D01*
X136608570Y-135687619D02*
X136703808Y-135830476D01*
X136703808Y-135830476D02*
X136799046Y-135925714D01*
X136799046Y-135925714D02*
X136894284Y-135973333D01*
X135418094Y-135687619D02*
X135894284Y-135687619D01*
X135894284Y-135687619D02*
X135941903Y-136163809D01*
X135941903Y-136163809D02*
X135894284Y-136116190D01*
X135894284Y-136116190D02*
X135799046Y-136068571D01*
X135799046Y-136068571D02*
X135560951Y-136068571D01*
X135560951Y-136068571D02*
X135465713Y-136116190D01*
X135465713Y-136116190D02*
X135418094Y-136163809D01*
X135418094Y-136163809D02*
X135370475Y-136259047D01*
X135370475Y-136259047D02*
X135370475Y-136497142D01*
X135370475Y-136497142D02*
X135418094Y-136592380D01*
X135418094Y-136592380D02*
X135465713Y-136640000D01*
X135465713Y-136640000D02*
X135560951Y-136687619D01*
X135560951Y-136687619D02*
X135799046Y-136687619D01*
X135799046Y-136687619D02*
X135894284Y-136640000D01*
X135894284Y-136640000D02*
X135941903Y-136592380D01*
X169656190Y-138688571D02*
X169703809Y-138640952D01*
X169703809Y-138640952D02*
X169799047Y-138498095D01*
X169799047Y-138498095D02*
X169846666Y-138402857D01*
X169846666Y-138402857D02*
X169894285Y-138260000D01*
X169894285Y-138260000D02*
X169941904Y-138021904D01*
X169941904Y-138021904D02*
X169941904Y-137831428D01*
X169941904Y-137831428D02*
X169894285Y-137593333D01*
X169894285Y-137593333D02*
X169846666Y-137450476D01*
X169846666Y-137450476D02*
X169799047Y-137355238D01*
X169799047Y-137355238D02*
X169703809Y-137212380D01*
X169703809Y-137212380D02*
X169656190Y-137164761D01*
X168703809Y-138212380D02*
X168751428Y-138260000D01*
X168751428Y-138260000D02*
X168894285Y-138307619D01*
X168894285Y-138307619D02*
X168989523Y-138307619D01*
X168989523Y-138307619D02*
X169132380Y-138260000D01*
X169132380Y-138260000D02*
X169227618Y-138164761D01*
X169227618Y-138164761D02*
X169275237Y-138069523D01*
X169275237Y-138069523D02*
X169322856Y-137879047D01*
X169322856Y-137879047D02*
X169322856Y-137736190D01*
X169322856Y-137736190D02*
X169275237Y-137545714D01*
X169275237Y-137545714D02*
X169227618Y-137450476D01*
X169227618Y-137450476D02*
X169132380Y-137355238D01*
X169132380Y-137355238D02*
X168989523Y-137307619D01*
X168989523Y-137307619D02*
X168894285Y-137307619D01*
X168894285Y-137307619D02*
X168751428Y-137355238D01*
X168751428Y-137355238D02*
X168703809Y-137402857D01*
X168370475Y-138688571D02*
X168322856Y-138640952D01*
X168322856Y-138640952D02*
X168227618Y-138498095D01*
X168227618Y-138498095D02*
X168179999Y-138402857D01*
X168179999Y-138402857D02*
X168132380Y-138260000D01*
X168132380Y-138260000D02*
X168084761Y-138021904D01*
X168084761Y-138021904D02*
X168084761Y-137831428D01*
X168084761Y-137831428D02*
X168132380Y-137593333D01*
X168132380Y-137593333D02*
X168179999Y-137450476D01*
X168179999Y-137450476D02*
X168227618Y-137355238D01*
X168227618Y-137355238D02*
X168322856Y-137212380D01*
X168322856Y-137212380D02*
X168370475Y-137164761D01*
X166894284Y-138260000D02*
X166751427Y-138307619D01*
X166751427Y-138307619D02*
X166513332Y-138307619D01*
X166513332Y-138307619D02*
X166418094Y-138260000D01*
X166418094Y-138260000D02*
X166370475Y-138212380D01*
X166370475Y-138212380D02*
X166322856Y-138117142D01*
X166322856Y-138117142D02*
X166322856Y-138021904D01*
X166322856Y-138021904D02*
X166370475Y-137926666D01*
X166370475Y-137926666D02*
X166418094Y-137879047D01*
X166418094Y-137879047D02*
X166513332Y-137831428D01*
X166513332Y-137831428D02*
X166703808Y-137783809D01*
X166703808Y-137783809D02*
X166799046Y-137736190D01*
X166799046Y-137736190D02*
X166846665Y-137688571D01*
X166846665Y-137688571D02*
X166894284Y-137593333D01*
X166894284Y-137593333D02*
X166894284Y-137498095D01*
X166894284Y-137498095D02*
X166846665Y-137402857D01*
X166846665Y-137402857D02*
X166799046Y-137355238D01*
X166799046Y-137355238D02*
X166703808Y-137307619D01*
X166703808Y-137307619D02*
X166465713Y-137307619D01*
X166465713Y-137307619D02*
X166322856Y-137355238D01*
X165513332Y-138260000D02*
X165608570Y-138307619D01*
X165608570Y-138307619D02*
X165799046Y-138307619D01*
X165799046Y-138307619D02*
X165894284Y-138260000D01*
X165894284Y-138260000D02*
X165941903Y-138164761D01*
X165941903Y-138164761D02*
X165941903Y-137783809D01*
X165941903Y-137783809D02*
X165894284Y-137688571D01*
X165894284Y-137688571D02*
X165799046Y-137640952D01*
X165799046Y-137640952D02*
X165608570Y-137640952D01*
X165608570Y-137640952D02*
X165513332Y-137688571D01*
X165513332Y-137688571D02*
X165465713Y-137783809D01*
X165465713Y-137783809D02*
X165465713Y-137879047D01*
X165465713Y-137879047D02*
X165941903Y-137974285D01*
X165037141Y-138307619D02*
X165037141Y-137640952D01*
X165037141Y-137307619D02*
X165084760Y-137355238D01*
X165084760Y-137355238D02*
X165037141Y-137402857D01*
X165037141Y-137402857D02*
X164989522Y-137355238D01*
X164989522Y-137355238D02*
X165037141Y-137307619D01*
X165037141Y-137307619D02*
X165037141Y-137402857D01*
X164560951Y-138307619D02*
X164560951Y-137640952D01*
X164560951Y-137307619D02*
X164608570Y-137355238D01*
X164608570Y-137355238D02*
X164560951Y-137402857D01*
X164560951Y-137402857D02*
X164513332Y-137355238D01*
X164513332Y-137355238D02*
X164560951Y-137307619D01*
X164560951Y-137307619D02*
X164560951Y-137402857D01*
X163656190Y-138260000D02*
X163751428Y-138307619D01*
X163751428Y-138307619D02*
X163941904Y-138307619D01*
X163941904Y-138307619D02*
X164037142Y-138260000D01*
X164037142Y-138260000D02*
X164084761Y-138212380D01*
X164084761Y-138212380D02*
X164132380Y-138117142D01*
X164132380Y-138117142D02*
X164132380Y-137831428D01*
X164132380Y-137831428D02*
X164084761Y-137736190D01*
X164084761Y-137736190D02*
X164037142Y-137688571D01*
X164037142Y-137688571D02*
X163941904Y-137640952D01*
X163941904Y-137640952D02*
X163751428Y-137640952D01*
X163751428Y-137640952D02*
X163656190Y-137688571D01*
X163227618Y-138307619D02*
X163227618Y-137307619D01*
X162799047Y-138307619D02*
X162799047Y-137783809D01*
X162799047Y-137783809D02*
X162846666Y-137688571D01*
X162846666Y-137688571D02*
X162941904Y-137640952D01*
X162941904Y-137640952D02*
X163084761Y-137640952D01*
X163084761Y-137640952D02*
X163179999Y-137688571D01*
X163179999Y-137688571D02*
X163227618Y-137736190D01*
X162322856Y-138307619D02*
X162322856Y-137640952D01*
X162322856Y-137307619D02*
X162370475Y-137355238D01*
X162370475Y-137355238D02*
X162322856Y-137402857D01*
X162322856Y-137402857D02*
X162275237Y-137355238D01*
X162275237Y-137355238D02*
X162322856Y-137307619D01*
X162322856Y-137307619D02*
X162322856Y-137402857D01*
X161132380Y-137307619D02*
X161132380Y-137498095D01*
X160751428Y-137307619D02*
X160751428Y-137498095D01*
X160370475Y-138260000D02*
X160227618Y-138307619D01*
X160227618Y-138307619D02*
X159989523Y-138307619D01*
X159989523Y-138307619D02*
X159894285Y-138260000D01*
X159894285Y-138260000D02*
X159846666Y-138212380D01*
X159846666Y-138212380D02*
X159799047Y-138117142D01*
X159799047Y-138117142D02*
X159799047Y-138021904D01*
X159799047Y-138021904D02*
X159846666Y-137926666D01*
X159846666Y-137926666D02*
X159894285Y-137879047D01*
X159894285Y-137879047D02*
X159989523Y-137831428D01*
X159989523Y-137831428D02*
X160179999Y-137783809D01*
X160179999Y-137783809D02*
X160275237Y-137736190D01*
X160275237Y-137736190D02*
X160322856Y-137688571D01*
X160322856Y-137688571D02*
X160370475Y-137593333D01*
X160370475Y-137593333D02*
X160370475Y-137498095D01*
X160370475Y-137498095D02*
X160322856Y-137402857D01*
X160322856Y-137402857D02*
X160275237Y-137355238D01*
X160275237Y-137355238D02*
X160179999Y-137307619D01*
X160179999Y-137307619D02*
X159941904Y-137307619D01*
X159941904Y-137307619D02*
X159799047Y-137355238D01*
X158941904Y-137640952D02*
X158941904Y-138307619D01*
X159370475Y-137640952D02*
X159370475Y-138164761D01*
X159370475Y-138164761D02*
X159322856Y-138260000D01*
X159322856Y-138260000D02*
X159227618Y-138307619D01*
X159227618Y-138307619D02*
X159084761Y-138307619D01*
X159084761Y-138307619D02*
X158989523Y-138260000D01*
X158989523Y-138260000D02*
X158941904Y-138212380D01*
X158465713Y-138307619D02*
X158465713Y-137640952D01*
X158465713Y-137307619D02*
X158513332Y-137355238D01*
X158513332Y-137355238D02*
X158465713Y-137402857D01*
X158465713Y-137402857D02*
X158418094Y-137355238D01*
X158418094Y-137355238D02*
X158465713Y-137307619D01*
X158465713Y-137307619D02*
X158465713Y-137402857D01*
X157989523Y-138307619D02*
X157989523Y-137307619D01*
X157894285Y-137926666D02*
X157608571Y-138307619D01*
X157608571Y-137640952D02*
X157989523Y-138021904D01*
X156751428Y-138307619D02*
X156751428Y-137783809D01*
X156751428Y-137783809D02*
X156799047Y-137688571D01*
X156799047Y-137688571D02*
X156894285Y-137640952D01*
X156894285Y-137640952D02*
X157084761Y-137640952D01*
X157084761Y-137640952D02*
X157179999Y-137688571D01*
X156751428Y-138260000D02*
X156846666Y-138307619D01*
X156846666Y-138307619D02*
X157084761Y-138307619D01*
X157084761Y-138307619D02*
X157179999Y-138260000D01*
X157179999Y-138260000D02*
X157227618Y-138164761D01*
X157227618Y-138164761D02*
X157227618Y-138069523D01*
X157227618Y-138069523D02*
X157179999Y-137974285D01*
X157179999Y-137974285D02*
X157084761Y-137926666D01*
X157084761Y-137926666D02*
X156846666Y-137926666D01*
X156846666Y-137926666D02*
X156751428Y-137879047D01*
X156275237Y-137640952D02*
X156275237Y-138307619D01*
X156275237Y-137736190D02*
X156227618Y-137688571D01*
X156227618Y-137688571D02*
X156132380Y-137640952D01*
X156132380Y-137640952D02*
X155989523Y-137640952D01*
X155989523Y-137640952D02*
X155894285Y-137688571D01*
X155894285Y-137688571D02*
X155846666Y-137783809D01*
X155846666Y-137783809D02*
X155846666Y-138307619D01*
X155418094Y-137307619D02*
X155418094Y-137498095D01*
X155037142Y-137307619D02*
X155037142Y-137498095D01*
X153846665Y-138307619D02*
X153846665Y-137307619D01*
X153846665Y-137783809D02*
X153275237Y-137783809D01*
X153275237Y-138307619D02*
X153275237Y-137307619D01*
X152656189Y-138307619D02*
X152751427Y-138260000D01*
X152751427Y-138260000D02*
X152799046Y-138212380D01*
X152799046Y-138212380D02*
X152846665Y-138117142D01*
X152846665Y-138117142D02*
X152846665Y-137831428D01*
X152846665Y-137831428D02*
X152799046Y-137736190D01*
X152799046Y-137736190D02*
X152751427Y-137688571D01*
X152751427Y-137688571D02*
X152656189Y-137640952D01*
X152656189Y-137640952D02*
X152513332Y-137640952D01*
X152513332Y-137640952D02*
X152418094Y-137688571D01*
X152418094Y-137688571D02*
X152370475Y-137736190D01*
X152370475Y-137736190D02*
X152322856Y-137831428D01*
X152322856Y-137831428D02*
X152322856Y-138117142D01*
X152322856Y-138117142D02*
X152370475Y-138212380D01*
X152370475Y-138212380D02*
X152418094Y-138260000D01*
X152418094Y-138260000D02*
X152513332Y-138307619D01*
X152513332Y-138307619D02*
X152656189Y-138307619D01*
X151894284Y-138307619D02*
X151894284Y-137640952D01*
X151894284Y-137831428D02*
X151846665Y-137736190D01*
X151846665Y-137736190D02*
X151799046Y-137688571D01*
X151799046Y-137688571D02*
X151703808Y-137640952D01*
X151703808Y-137640952D02*
X151608570Y-137640952D01*
X151275236Y-138307619D02*
X151275236Y-137640952D01*
X151275236Y-137307619D02*
X151322855Y-137355238D01*
X151322855Y-137355238D02*
X151275236Y-137402857D01*
X151275236Y-137402857D02*
X151227617Y-137355238D01*
X151227617Y-137355238D02*
X151275236Y-137307619D01*
X151275236Y-137307619D02*
X151275236Y-137402857D01*
X150418094Y-138260000D02*
X150513332Y-138307619D01*
X150513332Y-138307619D02*
X150703808Y-138307619D01*
X150703808Y-138307619D02*
X150799046Y-138260000D01*
X150799046Y-138260000D02*
X150846665Y-138164761D01*
X150846665Y-138164761D02*
X150846665Y-137783809D01*
X150846665Y-137783809D02*
X150799046Y-137688571D01*
X150799046Y-137688571D02*
X150703808Y-137640952D01*
X150703808Y-137640952D02*
X150513332Y-137640952D01*
X150513332Y-137640952D02*
X150418094Y-137688571D01*
X150418094Y-137688571D02*
X150370475Y-137783809D01*
X150370475Y-137783809D02*
X150370475Y-137879047D01*
X150370475Y-137879047D02*
X150846665Y-137974285D01*
X149894284Y-138260000D02*
X149894284Y-138307619D01*
X149894284Y-138307619D02*
X149941903Y-138402857D01*
X149941903Y-138402857D02*
X149989522Y-138450476D01*
X148751427Y-137402857D02*
X148703808Y-137355238D01*
X148703808Y-137355238D02*
X148608570Y-137307619D01*
X148608570Y-137307619D02*
X148370475Y-137307619D01*
X148370475Y-137307619D02*
X148275237Y-137355238D01*
X148275237Y-137355238D02*
X148227618Y-137402857D01*
X148227618Y-137402857D02*
X148179999Y-137498095D01*
X148179999Y-137498095D02*
X148179999Y-137593333D01*
X148179999Y-137593333D02*
X148227618Y-137736190D01*
X148227618Y-137736190D02*
X148799046Y-138307619D01*
X148799046Y-138307619D02*
X148179999Y-138307619D01*
X147560951Y-137307619D02*
X147465713Y-137307619D01*
X147465713Y-137307619D02*
X147370475Y-137355238D01*
X147370475Y-137355238D02*
X147322856Y-137402857D01*
X147322856Y-137402857D02*
X147275237Y-137498095D01*
X147275237Y-137498095D02*
X147227618Y-137688571D01*
X147227618Y-137688571D02*
X147227618Y-137926666D01*
X147227618Y-137926666D02*
X147275237Y-138117142D01*
X147275237Y-138117142D02*
X147322856Y-138212380D01*
X147322856Y-138212380D02*
X147370475Y-138260000D01*
X147370475Y-138260000D02*
X147465713Y-138307619D01*
X147465713Y-138307619D02*
X147560951Y-138307619D01*
X147560951Y-138307619D02*
X147656189Y-138260000D01*
X147656189Y-138260000D02*
X147703808Y-138212380D01*
X147703808Y-138212380D02*
X147751427Y-138117142D01*
X147751427Y-138117142D02*
X147799046Y-137926666D01*
X147799046Y-137926666D02*
X147799046Y-137688571D01*
X147799046Y-137688571D02*
X147751427Y-137498095D01*
X147751427Y-137498095D02*
X147703808Y-137402857D01*
X147703808Y-137402857D02*
X147656189Y-137355238D01*
X147656189Y-137355238D02*
X147560951Y-137307619D01*
X146846665Y-137402857D02*
X146799046Y-137355238D01*
X146799046Y-137355238D02*
X146703808Y-137307619D01*
X146703808Y-137307619D02*
X146465713Y-137307619D01*
X146465713Y-137307619D02*
X146370475Y-137355238D01*
X146370475Y-137355238D02*
X146322856Y-137402857D01*
X146322856Y-137402857D02*
X146275237Y-137498095D01*
X146275237Y-137498095D02*
X146275237Y-137593333D01*
X146275237Y-137593333D02*
X146322856Y-137736190D01*
X146322856Y-137736190D02*
X146894284Y-138307619D01*
X146894284Y-138307619D02*
X146275237Y-138307619D01*
X145941903Y-137307619D02*
X145322856Y-137307619D01*
X145322856Y-137307619D02*
X145656189Y-137688571D01*
X145656189Y-137688571D02*
X145513332Y-137688571D01*
X145513332Y-137688571D02*
X145418094Y-137736190D01*
X145418094Y-137736190D02*
X145370475Y-137783809D01*
X145370475Y-137783809D02*
X145322856Y-137879047D01*
X145322856Y-137879047D02*
X145322856Y-138117142D01*
X145322856Y-138117142D02*
X145370475Y-138212380D01*
X145370475Y-138212380D02*
X145418094Y-138260000D01*
X145418094Y-138260000D02*
X145513332Y-138307619D01*
X145513332Y-138307619D02*
X145799046Y-138307619D01*
X145799046Y-138307619D02*
X145894284Y-138260000D01*
X145894284Y-138260000D02*
X145941903Y-138212380D01*
X184483333Y-85592619D02*
X184483333Y-86306904D01*
X184483333Y-86306904D02*
X184530952Y-86449761D01*
X184530952Y-86449761D02*
X184626190Y-86545000D01*
X184626190Y-86545000D02*
X184769047Y-86592619D01*
X184769047Y-86592619D02*
X184864285Y-86592619D01*
X184054761Y-85687857D02*
X184007142Y-85640238D01*
X184007142Y-85640238D02*
X183911904Y-85592619D01*
X183911904Y-85592619D02*
X183673809Y-85592619D01*
X183673809Y-85592619D02*
X183578571Y-85640238D01*
X183578571Y-85640238D02*
X183530952Y-85687857D01*
X183530952Y-85687857D02*
X183483333Y-85783095D01*
X183483333Y-85783095D02*
X183483333Y-85878333D01*
X183483333Y-85878333D02*
X183530952Y-86021190D01*
X183530952Y-86021190D02*
X184102380Y-86592619D01*
X184102380Y-86592619D02*
X183483333Y-86592619D01*
X123523333Y-85592619D02*
X123523333Y-86306904D01*
X123523333Y-86306904D02*
X123570952Y-86449761D01*
X123570952Y-86449761D02*
X123666190Y-86545000D01*
X123666190Y-86545000D02*
X123809047Y-86592619D01*
X123809047Y-86592619D02*
X123904285Y-86592619D01*
X122523333Y-86592619D02*
X123094761Y-86592619D01*
X122809047Y-86592619D02*
X122809047Y-85592619D01*
X122809047Y-85592619D02*
X122904285Y-85735476D01*
X122904285Y-85735476D02*
X122999523Y-85830714D01*
X122999523Y-85830714D02*
X123094761Y-85878333D01*
D11*
X186750000Y-135950000D02*
X181550000Y-135950000D01*
X186750000Y-87570000D02*
X186750000Y-135950000D01*
X186750000Y-87570000D02*
X184150000Y-87570000D01*
X184150000Y-90170000D02*
X181550000Y-90170000D01*
X184150000Y-87570000D02*
X184150000Y-90170000D01*
X182880000Y-87570000D02*
X181550000Y-87570000D01*
X181550000Y-90170000D02*
X181550000Y-135950000D01*
X181550000Y-87570000D02*
X181550000Y-88900000D01*
X125790000Y-135950000D02*
X120590000Y-135950000D01*
X125790000Y-87570000D02*
X125790000Y-135950000D01*
X125790000Y-87570000D02*
X123190000Y-87570000D01*
X123190000Y-90170000D02*
X120590000Y-90170000D01*
X123190000Y-87570000D02*
X123190000Y-90170000D01*
X121920000Y-87570000D02*
X120590000Y-87570000D01*
X120590000Y-90170000D02*
X120590000Y-135950000D01*
X120590000Y-87570000D02*
X120590000Y-88900000D01*
M02*
