G04 #@! TF.GenerationSoftware,KiCad,Pcbnew,7.0.1-3b83917a11~172~ubuntu22.04.1*
G04 #@! TF.CreationDate,2023-04-09T22:48:41+09:00*
G04 #@! TF.ProjectId,Akashi-15,416b6173-6869-42d3-9135-2e6b69636164,rev?*
G04 #@! TF.SameCoordinates,Original*
G04 #@! TF.FileFunction,Legend,Top*
G04 #@! TF.FilePolarity,Positive*
%FSLAX46Y46*%
G04 Gerber Fmt 4.6, Leading zero omitted, Abs format (unit mm)*
G04 Created by KiCad (PCBNEW 7.0.1-3b83917a11~172~ubuntu22.04.1) date 2023-04-09 22:48:41*
%MOMM*%
%LPD*%
G01*
G04 APERTURE LIST*
%ADD10C,0.200000*%
%ADD11C,0.120000*%
%ADD12C,0.150000*%
G04 APERTURE END LIST*
D10*
X147605714Y-137817857D02*
X148320000Y-137817857D01*
X147462857Y-138246428D02*
X147962857Y-136746428D01*
X147962857Y-136746428D02*
X148462857Y-138246428D01*
X148962856Y-138246428D02*
X148962856Y-136746428D01*
X149105714Y-137675000D02*
X149534285Y-138246428D01*
X149534285Y-137246428D02*
X148962856Y-137817857D01*
X150820000Y-138246428D02*
X150820000Y-137460714D01*
X150820000Y-137460714D02*
X150748571Y-137317857D01*
X150748571Y-137317857D02*
X150605714Y-137246428D01*
X150605714Y-137246428D02*
X150320000Y-137246428D01*
X150320000Y-137246428D02*
X150177142Y-137317857D01*
X150820000Y-138175000D02*
X150677142Y-138246428D01*
X150677142Y-138246428D02*
X150320000Y-138246428D01*
X150320000Y-138246428D02*
X150177142Y-138175000D01*
X150177142Y-138175000D02*
X150105714Y-138032142D01*
X150105714Y-138032142D02*
X150105714Y-137889285D01*
X150105714Y-137889285D02*
X150177142Y-137746428D01*
X150177142Y-137746428D02*
X150320000Y-137675000D01*
X150320000Y-137675000D02*
X150677142Y-137675000D01*
X150677142Y-137675000D02*
X150820000Y-137603571D01*
X151462857Y-138175000D02*
X151605714Y-138246428D01*
X151605714Y-138246428D02*
X151891428Y-138246428D01*
X151891428Y-138246428D02*
X152034285Y-138175000D01*
X152034285Y-138175000D02*
X152105714Y-138032142D01*
X152105714Y-138032142D02*
X152105714Y-137960714D01*
X152105714Y-137960714D02*
X152034285Y-137817857D01*
X152034285Y-137817857D02*
X151891428Y-137746428D01*
X151891428Y-137746428D02*
X151677143Y-137746428D01*
X151677143Y-137746428D02*
X151534285Y-137675000D01*
X151534285Y-137675000D02*
X151462857Y-137532142D01*
X151462857Y-137532142D02*
X151462857Y-137460714D01*
X151462857Y-137460714D02*
X151534285Y-137317857D01*
X151534285Y-137317857D02*
X151677143Y-137246428D01*
X151677143Y-137246428D02*
X151891428Y-137246428D01*
X151891428Y-137246428D02*
X152034285Y-137317857D01*
X152748571Y-138246428D02*
X152748571Y-136746428D01*
X153391429Y-138246428D02*
X153391429Y-137460714D01*
X153391429Y-137460714D02*
X153320000Y-137317857D01*
X153320000Y-137317857D02*
X153177143Y-137246428D01*
X153177143Y-137246428D02*
X152962857Y-137246428D01*
X152962857Y-137246428D02*
X152820000Y-137317857D01*
X152820000Y-137317857D02*
X152748571Y-137389285D01*
X154105714Y-138246428D02*
X154105714Y-137246428D01*
X154105714Y-136746428D02*
X154034286Y-136817857D01*
X154034286Y-136817857D02*
X154105714Y-136889285D01*
X154105714Y-136889285D02*
X154177143Y-136817857D01*
X154177143Y-136817857D02*
X154105714Y-136746428D01*
X154105714Y-136746428D02*
X154105714Y-136889285D01*
X154820000Y-137675000D02*
X155962858Y-137675000D01*
X157462858Y-138246428D02*
X156605715Y-138246428D01*
X157034286Y-138246428D02*
X157034286Y-136746428D01*
X157034286Y-136746428D02*
X156891429Y-136960714D01*
X156891429Y-136960714D02*
X156748572Y-137103571D01*
X156748572Y-137103571D02*
X156605715Y-137175000D01*
X158820000Y-136746428D02*
X158105714Y-136746428D01*
X158105714Y-136746428D02*
X158034286Y-137460714D01*
X158034286Y-137460714D02*
X158105714Y-137389285D01*
X158105714Y-137389285D02*
X158248572Y-137317857D01*
X158248572Y-137317857D02*
X158605714Y-137317857D01*
X158605714Y-137317857D02*
X158748572Y-137389285D01*
X158748572Y-137389285D02*
X158820000Y-137460714D01*
X158820000Y-137460714D02*
X158891429Y-137603571D01*
X158891429Y-137603571D02*
X158891429Y-137960714D01*
X158891429Y-137960714D02*
X158820000Y-138103571D01*
X158820000Y-138103571D02*
X158748572Y-138175000D01*
X158748572Y-138175000D02*
X158605714Y-138246428D01*
X158605714Y-138246428D02*
X158248572Y-138246428D01*
X158248572Y-138246428D02*
X158105714Y-138175000D01*
X158105714Y-138175000D02*
X158034286Y-138103571D01*
D11*
X176879333Y-97656666D02*
X176879333Y-97323333D01*
X177079333Y-97723333D02*
X176379333Y-97490000D01*
X176379333Y-97490000D02*
X177079333Y-97256666D01*
X176379333Y-97123333D02*
X177079333Y-96890000D01*
X177079333Y-96890000D02*
X176379333Y-96656666D01*
X177079333Y-96423333D02*
X176379333Y-96423333D01*
X176379333Y-96423333D02*
X176379333Y-96256666D01*
X176379333Y-96256666D02*
X176412666Y-96156666D01*
X176412666Y-96156666D02*
X176479333Y-96090000D01*
X176479333Y-96090000D02*
X176546000Y-96056666D01*
X176546000Y-96056666D02*
X176679333Y-96023333D01*
X176679333Y-96023333D02*
X176779333Y-96023333D01*
X176779333Y-96023333D02*
X176912666Y-96056666D01*
X176912666Y-96056666D02*
X176979333Y-96090000D01*
X176979333Y-96090000D02*
X177046000Y-96156666D01*
X177046000Y-96156666D02*
X177079333Y-96256666D01*
X177079333Y-96256666D02*
X177079333Y-96423333D01*
X177079333Y-95723333D02*
X176379333Y-95723333D01*
X176379333Y-95723333D02*
X176379333Y-95556666D01*
X176379333Y-95556666D02*
X176412666Y-95456666D01*
X176412666Y-95456666D02*
X176479333Y-95390000D01*
X176479333Y-95390000D02*
X176546000Y-95356666D01*
X176546000Y-95356666D02*
X176679333Y-95323333D01*
X176679333Y-95323333D02*
X176779333Y-95323333D01*
X176779333Y-95323333D02*
X176912666Y-95356666D01*
X176912666Y-95356666D02*
X176979333Y-95390000D01*
X176979333Y-95390000D02*
X177046000Y-95456666D01*
X177046000Y-95456666D02*
X177079333Y-95556666D01*
X177079333Y-95556666D02*
X177079333Y-95723333D01*
X191235000Y-124309333D02*
X191668333Y-124309333D01*
X191668333Y-124309333D02*
X191435000Y-124576000D01*
X191435000Y-124576000D02*
X191535000Y-124576000D01*
X191535000Y-124576000D02*
X191601666Y-124609333D01*
X191601666Y-124609333D02*
X191635000Y-124642666D01*
X191635000Y-124642666D02*
X191668333Y-124709333D01*
X191668333Y-124709333D02*
X191668333Y-124876000D01*
X191668333Y-124876000D02*
X191635000Y-124942666D01*
X191635000Y-124942666D02*
X191601666Y-124976000D01*
X191601666Y-124976000D02*
X191535000Y-125009333D01*
X191535000Y-125009333D02*
X191335000Y-125009333D01*
X191335000Y-125009333D02*
X191268333Y-124976000D01*
X191268333Y-124976000D02*
X191235000Y-124942666D01*
X192101667Y-124309333D02*
X192168333Y-124309333D01*
X192168333Y-124309333D02*
X192235000Y-124342666D01*
X192235000Y-124342666D02*
X192268333Y-124376000D01*
X192268333Y-124376000D02*
X192301667Y-124442666D01*
X192301667Y-124442666D02*
X192335000Y-124576000D01*
X192335000Y-124576000D02*
X192335000Y-124742666D01*
X192335000Y-124742666D02*
X192301667Y-124876000D01*
X192301667Y-124876000D02*
X192268333Y-124942666D01*
X192268333Y-124942666D02*
X192235000Y-124976000D01*
X192235000Y-124976000D02*
X192168333Y-125009333D01*
X192168333Y-125009333D02*
X192101667Y-125009333D01*
X192101667Y-125009333D02*
X192035000Y-124976000D01*
X192035000Y-124976000D02*
X192001667Y-124942666D01*
X192001667Y-124942666D02*
X191968333Y-124876000D01*
X191968333Y-124876000D02*
X191935000Y-124742666D01*
X191935000Y-124742666D02*
X191935000Y-124576000D01*
X191935000Y-124576000D02*
X191968333Y-124442666D01*
X191968333Y-124442666D02*
X192001667Y-124376000D01*
X192001667Y-124376000D02*
X192035000Y-124342666D01*
X192035000Y-124342666D02*
X192101667Y-124309333D01*
D12*
X115717619Y-83581904D02*
X116527142Y-83581904D01*
X116527142Y-83581904D02*
X116622380Y-83534285D01*
X116622380Y-83534285D02*
X116670000Y-83486666D01*
X116670000Y-83486666D02*
X116717619Y-83391428D01*
X116717619Y-83391428D02*
X116717619Y-83200952D01*
X116717619Y-83200952D02*
X116670000Y-83105714D01*
X116670000Y-83105714D02*
X116622380Y-83058095D01*
X116622380Y-83058095D02*
X116527142Y-83010476D01*
X116527142Y-83010476D02*
X115717619Y-83010476D01*
X116670000Y-82581904D02*
X116717619Y-82439047D01*
X116717619Y-82439047D02*
X116717619Y-82200952D01*
X116717619Y-82200952D02*
X116670000Y-82105714D01*
X116670000Y-82105714D02*
X116622380Y-82058095D01*
X116622380Y-82058095D02*
X116527142Y-82010476D01*
X116527142Y-82010476D02*
X116431904Y-82010476D01*
X116431904Y-82010476D02*
X116336666Y-82058095D01*
X116336666Y-82058095D02*
X116289047Y-82105714D01*
X116289047Y-82105714D02*
X116241428Y-82200952D01*
X116241428Y-82200952D02*
X116193809Y-82391428D01*
X116193809Y-82391428D02*
X116146190Y-82486666D01*
X116146190Y-82486666D02*
X116098571Y-82534285D01*
X116098571Y-82534285D02*
X116003333Y-82581904D01*
X116003333Y-82581904D02*
X115908095Y-82581904D01*
X115908095Y-82581904D02*
X115812857Y-82534285D01*
X115812857Y-82534285D02*
X115765238Y-82486666D01*
X115765238Y-82486666D02*
X115717619Y-82391428D01*
X115717619Y-82391428D02*
X115717619Y-82153333D01*
X115717619Y-82153333D02*
X115765238Y-82010476D01*
X116193809Y-81581904D02*
X116193809Y-81248571D01*
X116717619Y-81105714D02*
X116717619Y-81581904D01*
X116717619Y-81581904D02*
X115717619Y-81581904D01*
X115717619Y-81581904D02*
X115717619Y-81105714D01*
X116717619Y-80105714D02*
X116241428Y-80439047D01*
X116717619Y-80677142D02*
X115717619Y-80677142D01*
X115717619Y-80677142D02*
X115717619Y-80296190D01*
X115717619Y-80296190D02*
X115765238Y-80200952D01*
X115765238Y-80200952D02*
X115812857Y-80153333D01*
X115812857Y-80153333D02*
X115908095Y-80105714D01*
X115908095Y-80105714D02*
X116050952Y-80105714D01*
X116050952Y-80105714D02*
X116146190Y-80153333D01*
X116146190Y-80153333D02*
X116193809Y-80200952D01*
X116193809Y-80200952D02*
X116241428Y-80296190D01*
X116241428Y-80296190D02*
X116241428Y-80677142D01*
X116670000Y-78962856D02*
X116717619Y-78819999D01*
X116717619Y-78819999D02*
X116717619Y-78581904D01*
X116717619Y-78581904D02*
X116670000Y-78486666D01*
X116670000Y-78486666D02*
X116622380Y-78439047D01*
X116622380Y-78439047D02*
X116527142Y-78391428D01*
X116527142Y-78391428D02*
X116431904Y-78391428D01*
X116431904Y-78391428D02*
X116336666Y-78439047D01*
X116336666Y-78439047D02*
X116289047Y-78486666D01*
X116289047Y-78486666D02*
X116241428Y-78581904D01*
X116241428Y-78581904D02*
X116193809Y-78772380D01*
X116193809Y-78772380D02*
X116146190Y-78867618D01*
X116146190Y-78867618D02*
X116098571Y-78915237D01*
X116098571Y-78915237D02*
X116003333Y-78962856D01*
X116003333Y-78962856D02*
X115908095Y-78962856D01*
X115908095Y-78962856D02*
X115812857Y-78915237D01*
X115812857Y-78915237D02*
X115765238Y-78867618D01*
X115765238Y-78867618D02*
X115717619Y-78772380D01*
X115717619Y-78772380D02*
X115717619Y-78534285D01*
X115717619Y-78534285D02*
X115765238Y-78391428D01*
X115717619Y-78058094D02*
X116717619Y-77819999D01*
X116717619Y-77819999D02*
X116003333Y-77629523D01*
X116003333Y-77629523D02*
X116717619Y-77439047D01*
X116717619Y-77439047D02*
X115717619Y-77200952D01*
D11*
X130057666Y-112496666D02*
X130024333Y-112563333D01*
X130024333Y-112563333D02*
X130024333Y-112663333D01*
X130024333Y-112663333D02*
X130057666Y-112763333D01*
X130057666Y-112763333D02*
X130124333Y-112830000D01*
X130124333Y-112830000D02*
X130191000Y-112863333D01*
X130191000Y-112863333D02*
X130324333Y-112896666D01*
X130324333Y-112896666D02*
X130424333Y-112896666D01*
X130424333Y-112896666D02*
X130557666Y-112863333D01*
X130557666Y-112863333D02*
X130624333Y-112830000D01*
X130624333Y-112830000D02*
X130691000Y-112763333D01*
X130691000Y-112763333D02*
X130724333Y-112663333D01*
X130724333Y-112663333D02*
X130724333Y-112596666D01*
X130724333Y-112596666D02*
X130691000Y-112496666D01*
X130691000Y-112496666D02*
X130657666Y-112463333D01*
X130657666Y-112463333D02*
X130424333Y-112463333D01*
X130424333Y-112463333D02*
X130424333Y-112596666D01*
X130724333Y-112163333D02*
X130024333Y-112163333D01*
X130024333Y-112163333D02*
X130724333Y-111763333D01*
X130724333Y-111763333D02*
X130024333Y-111763333D01*
X130724333Y-111430000D02*
X130024333Y-111430000D01*
X130024333Y-111430000D02*
X130024333Y-111263333D01*
X130024333Y-111263333D02*
X130057666Y-111163333D01*
X130057666Y-111163333D02*
X130124333Y-111096667D01*
X130124333Y-111096667D02*
X130191000Y-111063333D01*
X130191000Y-111063333D02*
X130324333Y-111030000D01*
X130324333Y-111030000D02*
X130424333Y-111030000D01*
X130424333Y-111030000D02*
X130557666Y-111063333D01*
X130557666Y-111063333D02*
X130624333Y-111096667D01*
X130624333Y-111096667D02*
X130691000Y-111163333D01*
X130691000Y-111163333D02*
X130724333Y-111263333D01*
X130724333Y-111263333D02*
X130724333Y-111430000D01*
X130057666Y-115036666D02*
X130024333Y-115103333D01*
X130024333Y-115103333D02*
X130024333Y-115203333D01*
X130024333Y-115203333D02*
X130057666Y-115303333D01*
X130057666Y-115303333D02*
X130124333Y-115370000D01*
X130124333Y-115370000D02*
X130191000Y-115403333D01*
X130191000Y-115403333D02*
X130324333Y-115436666D01*
X130324333Y-115436666D02*
X130424333Y-115436666D01*
X130424333Y-115436666D02*
X130557666Y-115403333D01*
X130557666Y-115403333D02*
X130624333Y-115370000D01*
X130624333Y-115370000D02*
X130691000Y-115303333D01*
X130691000Y-115303333D02*
X130724333Y-115203333D01*
X130724333Y-115203333D02*
X130724333Y-115136666D01*
X130724333Y-115136666D02*
X130691000Y-115036666D01*
X130691000Y-115036666D02*
X130657666Y-115003333D01*
X130657666Y-115003333D02*
X130424333Y-115003333D01*
X130424333Y-115003333D02*
X130424333Y-115136666D01*
X130724333Y-114703333D02*
X130024333Y-114703333D01*
X130024333Y-114703333D02*
X130724333Y-114303333D01*
X130724333Y-114303333D02*
X130024333Y-114303333D01*
X130724333Y-113970000D02*
X130024333Y-113970000D01*
X130024333Y-113970000D02*
X130024333Y-113803333D01*
X130024333Y-113803333D02*
X130057666Y-113703333D01*
X130057666Y-113703333D02*
X130124333Y-113636667D01*
X130124333Y-113636667D02*
X130191000Y-113603333D01*
X130191000Y-113603333D02*
X130324333Y-113570000D01*
X130324333Y-113570000D02*
X130424333Y-113570000D01*
X130424333Y-113570000D02*
X130557666Y-113603333D01*
X130557666Y-113603333D02*
X130624333Y-113636667D01*
X130624333Y-113636667D02*
X130691000Y-113703333D01*
X130691000Y-113703333D02*
X130724333Y-113803333D01*
X130724333Y-113803333D02*
X130724333Y-113970000D01*
X130024333Y-117789333D02*
X130724333Y-117556000D01*
X130724333Y-117556000D02*
X130024333Y-117322666D01*
X130724333Y-117089333D02*
X130024333Y-117089333D01*
X130724333Y-116756000D02*
X130024333Y-116756000D01*
X130024333Y-116756000D02*
X130724333Y-116356000D01*
X130724333Y-116356000D02*
X130024333Y-116356000D01*
X130724333Y-105243333D02*
X130024333Y-105243333D01*
X130024333Y-105243333D02*
X130724333Y-104843333D01*
X130724333Y-104843333D02*
X130024333Y-104843333D01*
X130724333Y-104110000D02*
X130391000Y-104343333D01*
X130724333Y-104510000D02*
X130024333Y-104510000D01*
X130024333Y-104510000D02*
X130024333Y-104243333D01*
X130024333Y-104243333D02*
X130057666Y-104176667D01*
X130057666Y-104176667D02*
X130091000Y-104143333D01*
X130091000Y-104143333D02*
X130157666Y-104110000D01*
X130157666Y-104110000D02*
X130257666Y-104110000D01*
X130257666Y-104110000D02*
X130324333Y-104143333D01*
X130324333Y-104143333D02*
X130357666Y-104176667D01*
X130357666Y-104176667D02*
X130391000Y-104243333D01*
X130391000Y-104243333D02*
X130391000Y-104510000D01*
X130691000Y-103843333D02*
X130724333Y-103743333D01*
X130724333Y-103743333D02*
X130724333Y-103576667D01*
X130724333Y-103576667D02*
X130691000Y-103510000D01*
X130691000Y-103510000D02*
X130657666Y-103476667D01*
X130657666Y-103476667D02*
X130591000Y-103443333D01*
X130591000Y-103443333D02*
X130524333Y-103443333D01*
X130524333Y-103443333D02*
X130457666Y-103476667D01*
X130457666Y-103476667D02*
X130424333Y-103510000D01*
X130424333Y-103510000D02*
X130391000Y-103576667D01*
X130391000Y-103576667D02*
X130357666Y-103710000D01*
X130357666Y-103710000D02*
X130324333Y-103776667D01*
X130324333Y-103776667D02*
X130291000Y-103810000D01*
X130291000Y-103810000D02*
X130224333Y-103843333D01*
X130224333Y-103843333D02*
X130157666Y-103843333D01*
X130157666Y-103843333D02*
X130091000Y-103810000D01*
X130091000Y-103810000D02*
X130057666Y-103776667D01*
X130057666Y-103776667D02*
X130024333Y-103710000D01*
X130024333Y-103710000D02*
X130024333Y-103543333D01*
X130024333Y-103543333D02*
X130057666Y-103443333D01*
X130024333Y-103243333D02*
X130024333Y-102843333D01*
X130724333Y-103043333D02*
X130024333Y-103043333D01*
X115035000Y-126214333D02*
X115468333Y-126214333D01*
X115468333Y-126214333D02*
X115235000Y-126481000D01*
X115235000Y-126481000D02*
X115335000Y-126481000D01*
X115335000Y-126481000D02*
X115401666Y-126514333D01*
X115401666Y-126514333D02*
X115435000Y-126547666D01*
X115435000Y-126547666D02*
X115468333Y-126614333D01*
X115468333Y-126614333D02*
X115468333Y-126781000D01*
X115468333Y-126781000D02*
X115435000Y-126847666D01*
X115435000Y-126847666D02*
X115401666Y-126881000D01*
X115401666Y-126881000D02*
X115335000Y-126914333D01*
X115335000Y-126914333D02*
X115135000Y-126914333D01*
X115135000Y-126914333D02*
X115068333Y-126881000D01*
X115068333Y-126881000D02*
X115035000Y-126847666D01*
X116135000Y-126914333D02*
X115735000Y-126914333D01*
X115935000Y-126914333D02*
X115935000Y-126214333D01*
X115935000Y-126214333D02*
X115868333Y-126314333D01*
X115868333Y-126314333D02*
X115801667Y-126381000D01*
X115801667Y-126381000D02*
X115735000Y-126414333D01*
D12*
X128147619Y-82311904D02*
X127147619Y-82311904D01*
X127147619Y-82311904D02*
X127147619Y-81930952D01*
X127147619Y-81930952D02*
X127195238Y-81835714D01*
X127195238Y-81835714D02*
X127242857Y-81788095D01*
X127242857Y-81788095D02*
X127338095Y-81740476D01*
X127338095Y-81740476D02*
X127480952Y-81740476D01*
X127480952Y-81740476D02*
X127576190Y-81788095D01*
X127576190Y-81788095D02*
X127623809Y-81835714D01*
X127623809Y-81835714D02*
X127671428Y-81930952D01*
X127671428Y-81930952D02*
X127671428Y-82311904D01*
X128052380Y-80740476D02*
X128100000Y-80788095D01*
X128100000Y-80788095D02*
X128147619Y-80930952D01*
X128147619Y-80930952D02*
X128147619Y-81026190D01*
X128147619Y-81026190D02*
X128100000Y-81169047D01*
X128100000Y-81169047D02*
X128004761Y-81264285D01*
X128004761Y-81264285D02*
X127909523Y-81311904D01*
X127909523Y-81311904D02*
X127719047Y-81359523D01*
X127719047Y-81359523D02*
X127576190Y-81359523D01*
X127576190Y-81359523D02*
X127385714Y-81311904D01*
X127385714Y-81311904D02*
X127290476Y-81264285D01*
X127290476Y-81264285D02*
X127195238Y-81169047D01*
X127195238Y-81169047D02*
X127147619Y-81026190D01*
X127147619Y-81026190D02*
X127147619Y-80930952D01*
X127147619Y-80930952D02*
X127195238Y-80788095D01*
X127195238Y-80788095D02*
X127242857Y-80740476D01*
X128147619Y-79788095D02*
X128147619Y-80359523D01*
X128147619Y-80073809D02*
X127147619Y-80073809D01*
X127147619Y-80073809D02*
X127290476Y-80169047D01*
X127290476Y-80169047D02*
X127385714Y-80264285D01*
X127385714Y-80264285D02*
X127433333Y-80359523D01*
X127147619Y-79454761D02*
X127147619Y-78835714D01*
X127147619Y-78835714D02*
X127528571Y-79169047D01*
X127528571Y-79169047D02*
X127528571Y-79026190D01*
X127528571Y-79026190D02*
X127576190Y-78930952D01*
X127576190Y-78930952D02*
X127623809Y-78883333D01*
X127623809Y-78883333D02*
X127719047Y-78835714D01*
X127719047Y-78835714D02*
X127957142Y-78835714D01*
X127957142Y-78835714D02*
X128052380Y-78883333D01*
X128052380Y-78883333D02*
X128100000Y-78930952D01*
X128100000Y-78930952D02*
X128147619Y-79026190D01*
X128147619Y-79026190D02*
X128147619Y-79311904D01*
X128147619Y-79311904D02*
X128100000Y-79407142D01*
X128100000Y-79407142D02*
X128052380Y-79454761D01*
D11*
X181237000Y-91814666D02*
X181270333Y-91714666D01*
X181270333Y-91714666D02*
X181270333Y-91548000D01*
X181270333Y-91548000D02*
X181237000Y-91481333D01*
X181237000Y-91481333D02*
X181203666Y-91448000D01*
X181203666Y-91448000D02*
X181137000Y-91414666D01*
X181137000Y-91414666D02*
X181070333Y-91414666D01*
X181070333Y-91414666D02*
X181003666Y-91448000D01*
X181003666Y-91448000D02*
X180970333Y-91481333D01*
X180970333Y-91481333D02*
X180937000Y-91548000D01*
X180937000Y-91548000D02*
X180903666Y-91681333D01*
X180903666Y-91681333D02*
X180870333Y-91748000D01*
X180870333Y-91748000D02*
X180837000Y-91781333D01*
X180837000Y-91781333D02*
X180770333Y-91814666D01*
X180770333Y-91814666D02*
X180703666Y-91814666D01*
X180703666Y-91814666D02*
X180637000Y-91781333D01*
X180637000Y-91781333D02*
X180603666Y-91748000D01*
X180603666Y-91748000D02*
X180570333Y-91681333D01*
X180570333Y-91681333D02*
X180570333Y-91514666D01*
X180570333Y-91514666D02*
X180603666Y-91414666D01*
X181203666Y-90714666D02*
X181237000Y-90747999D01*
X181237000Y-90747999D02*
X181270333Y-90847999D01*
X181270333Y-90847999D02*
X181270333Y-90914666D01*
X181270333Y-90914666D02*
X181237000Y-91014666D01*
X181237000Y-91014666D02*
X181170333Y-91081333D01*
X181170333Y-91081333D02*
X181103666Y-91114666D01*
X181103666Y-91114666D02*
X180970333Y-91147999D01*
X180970333Y-91147999D02*
X180870333Y-91147999D01*
X180870333Y-91147999D02*
X180737000Y-91114666D01*
X180737000Y-91114666D02*
X180670333Y-91081333D01*
X180670333Y-91081333D02*
X180603666Y-91014666D01*
X180603666Y-91014666D02*
X180570333Y-90914666D01*
X180570333Y-90914666D02*
X180570333Y-90847999D01*
X180570333Y-90847999D02*
X180603666Y-90747999D01*
X180603666Y-90747999D02*
X180637000Y-90714666D01*
X181270333Y-90081333D02*
X181270333Y-90414666D01*
X181270333Y-90414666D02*
X180570333Y-90414666D01*
X126660333Y-105243333D02*
X125960333Y-105243333D01*
X125960333Y-105243333D02*
X126660333Y-104843333D01*
X126660333Y-104843333D02*
X125960333Y-104843333D01*
X126660333Y-104110000D02*
X126327000Y-104343333D01*
X126660333Y-104510000D02*
X125960333Y-104510000D01*
X125960333Y-104510000D02*
X125960333Y-104243333D01*
X125960333Y-104243333D02*
X125993666Y-104176667D01*
X125993666Y-104176667D02*
X126027000Y-104143333D01*
X126027000Y-104143333D02*
X126093666Y-104110000D01*
X126093666Y-104110000D02*
X126193666Y-104110000D01*
X126193666Y-104110000D02*
X126260333Y-104143333D01*
X126260333Y-104143333D02*
X126293666Y-104176667D01*
X126293666Y-104176667D02*
X126327000Y-104243333D01*
X126327000Y-104243333D02*
X126327000Y-104510000D01*
X126627000Y-103843333D02*
X126660333Y-103743333D01*
X126660333Y-103743333D02*
X126660333Y-103576667D01*
X126660333Y-103576667D02*
X126627000Y-103510000D01*
X126627000Y-103510000D02*
X126593666Y-103476667D01*
X126593666Y-103476667D02*
X126527000Y-103443333D01*
X126527000Y-103443333D02*
X126460333Y-103443333D01*
X126460333Y-103443333D02*
X126393666Y-103476667D01*
X126393666Y-103476667D02*
X126360333Y-103510000D01*
X126360333Y-103510000D02*
X126327000Y-103576667D01*
X126327000Y-103576667D02*
X126293666Y-103710000D01*
X126293666Y-103710000D02*
X126260333Y-103776667D01*
X126260333Y-103776667D02*
X126227000Y-103810000D01*
X126227000Y-103810000D02*
X126160333Y-103843333D01*
X126160333Y-103843333D02*
X126093666Y-103843333D01*
X126093666Y-103843333D02*
X126027000Y-103810000D01*
X126027000Y-103810000D02*
X125993666Y-103776667D01*
X125993666Y-103776667D02*
X125960333Y-103710000D01*
X125960333Y-103710000D02*
X125960333Y-103543333D01*
X125960333Y-103543333D02*
X125993666Y-103443333D01*
X125960333Y-103243333D02*
X125960333Y-102843333D01*
X126660333Y-103043333D02*
X125960333Y-103043333D01*
X181070333Y-97529666D02*
X181070333Y-97196333D01*
X181270333Y-97596333D02*
X180570333Y-97363000D01*
X180570333Y-97363000D02*
X181270333Y-97129666D01*
X180570333Y-96996333D02*
X181270333Y-96763000D01*
X181270333Y-96763000D02*
X180570333Y-96529666D01*
X181270333Y-96296333D02*
X180570333Y-96296333D01*
X180570333Y-96296333D02*
X180570333Y-96129666D01*
X180570333Y-96129666D02*
X180603666Y-96029666D01*
X180603666Y-96029666D02*
X180670333Y-95963000D01*
X180670333Y-95963000D02*
X180737000Y-95929666D01*
X180737000Y-95929666D02*
X180870333Y-95896333D01*
X180870333Y-95896333D02*
X180970333Y-95896333D01*
X180970333Y-95896333D02*
X181103666Y-95929666D01*
X181103666Y-95929666D02*
X181170333Y-95963000D01*
X181170333Y-95963000D02*
X181237000Y-96029666D01*
X181237000Y-96029666D02*
X181270333Y-96129666D01*
X181270333Y-96129666D02*
X181270333Y-96296333D01*
X181270333Y-95596333D02*
X180570333Y-95596333D01*
X180570333Y-95596333D02*
X180570333Y-95429666D01*
X180570333Y-95429666D02*
X180603666Y-95329666D01*
X180603666Y-95329666D02*
X180670333Y-95263000D01*
X180670333Y-95263000D02*
X180737000Y-95229666D01*
X180737000Y-95229666D02*
X180870333Y-95196333D01*
X180870333Y-95196333D02*
X180970333Y-95196333D01*
X180970333Y-95196333D02*
X181103666Y-95229666D01*
X181103666Y-95229666D02*
X181170333Y-95263000D01*
X181170333Y-95263000D02*
X181237000Y-95329666D01*
X181237000Y-95329666D02*
X181270333Y-95429666D01*
X181270333Y-95429666D02*
X181270333Y-95596333D01*
X126660333Y-101668333D02*
X126327000Y-101901666D01*
X126660333Y-102068333D02*
X125960333Y-102068333D01*
X125960333Y-102068333D02*
X125960333Y-101801666D01*
X125960333Y-101801666D02*
X125993666Y-101735000D01*
X125993666Y-101735000D02*
X126027000Y-101701666D01*
X126027000Y-101701666D02*
X126093666Y-101668333D01*
X126093666Y-101668333D02*
X126193666Y-101668333D01*
X126193666Y-101668333D02*
X126260333Y-101701666D01*
X126260333Y-101701666D02*
X126293666Y-101735000D01*
X126293666Y-101735000D02*
X126327000Y-101801666D01*
X126327000Y-101801666D02*
X126327000Y-102068333D01*
X126293666Y-101368333D02*
X126293666Y-101135000D01*
X126660333Y-101035000D02*
X126660333Y-101368333D01*
X126660333Y-101368333D02*
X125960333Y-101368333D01*
X125960333Y-101368333D02*
X125960333Y-101035000D01*
X126293666Y-100501667D02*
X126293666Y-100735000D01*
X126660333Y-100735000D02*
X125960333Y-100735000D01*
X125960333Y-100735000D02*
X125960333Y-100401667D01*
X115419333Y-97088333D02*
X116119333Y-96855000D01*
X116119333Y-96855000D02*
X115419333Y-96621666D01*
X116119333Y-96388333D02*
X115419333Y-96388333D01*
X115419333Y-96388333D02*
X115419333Y-96221666D01*
X115419333Y-96221666D02*
X115452666Y-96121666D01*
X115452666Y-96121666D02*
X115519333Y-96055000D01*
X115519333Y-96055000D02*
X115586000Y-96021666D01*
X115586000Y-96021666D02*
X115719333Y-95988333D01*
X115719333Y-95988333D02*
X115819333Y-95988333D01*
X115819333Y-95988333D02*
X115952666Y-96021666D01*
X115952666Y-96021666D02*
X116019333Y-96055000D01*
X116019333Y-96055000D02*
X116086000Y-96121666D01*
X116086000Y-96121666D02*
X116119333Y-96221666D01*
X116119333Y-96221666D02*
X116119333Y-96388333D01*
X116119333Y-95688333D02*
X115419333Y-95688333D01*
X115419333Y-95688333D02*
X115419333Y-95521666D01*
X115419333Y-95521666D02*
X115452666Y-95421666D01*
X115452666Y-95421666D02*
X115519333Y-95355000D01*
X115519333Y-95355000D02*
X115586000Y-95321666D01*
X115586000Y-95321666D02*
X115719333Y-95288333D01*
X115719333Y-95288333D02*
X115819333Y-95288333D01*
X115819333Y-95288333D02*
X115952666Y-95321666D01*
X115952666Y-95321666D02*
X116019333Y-95355000D01*
X116019333Y-95355000D02*
X116086000Y-95421666D01*
X116086000Y-95421666D02*
X116119333Y-95521666D01*
X116119333Y-95521666D02*
X116119333Y-95688333D01*
X125993666Y-115066666D02*
X125960333Y-115133333D01*
X125960333Y-115133333D02*
X125960333Y-115233333D01*
X125960333Y-115233333D02*
X125993666Y-115333333D01*
X125993666Y-115333333D02*
X126060333Y-115400000D01*
X126060333Y-115400000D02*
X126127000Y-115433333D01*
X126127000Y-115433333D02*
X126260333Y-115466666D01*
X126260333Y-115466666D02*
X126360333Y-115466666D01*
X126360333Y-115466666D02*
X126493666Y-115433333D01*
X126493666Y-115433333D02*
X126560333Y-115400000D01*
X126560333Y-115400000D02*
X126627000Y-115333333D01*
X126627000Y-115333333D02*
X126660333Y-115233333D01*
X126660333Y-115233333D02*
X126660333Y-115166666D01*
X126660333Y-115166666D02*
X126627000Y-115066666D01*
X126627000Y-115066666D02*
X126593666Y-115033333D01*
X126593666Y-115033333D02*
X126360333Y-115033333D01*
X126360333Y-115033333D02*
X126360333Y-115166666D01*
X126660333Y-114733333D02*
X125960333Y-114733333D01*
X125960333Y-114733333D02*
X126660333Y-114333333D01*
X126660333Y-114333333D02*
X125960333Y-114333333D01*
X126660333Y-114000000D02*
X125960333Y-114000000D01*
X125960333Y-114000000D02*
X125960333Y-113833333D01*
X125960333Y-113833333D02*
X125993666Y-113733333D01*
X125993666Y-113733333D02*
X126060333Y-113666667D01*
X126060333Y-113666667D02*
X126127000Y-113633333D01*
X126127000Y-113633333D02*
X126260333Y-113600000D01*
X126260333Y-113600000D02*
X126360333Y-113600000D01*
X126360333Y-113600000D02*
X126493666Y-113633333D01*
X126493666Y-113633333D02*
X126560333Y-113666667D01*
X126560333Y-113666667D02*
X126627000Y-113733333D01*
X126627000Y-113733333D02*
X126660333Y-113833333D01*
X126660333Y-113833333D02*
X126660333Y-114000000D01*
X126293666Y-94829333D02*
X126293666Y-94596000D01*
X126660333Y-94496000D02*
X126660333Y-94829333D01*
X126660333Y-94829333D02*
X125960333Y-94829333D01*
X125960333Y-94829333D02*
X125960333Y-94496000D01*
X125960333Y-93862667D02*
X125960333Y-94196000D01*
X125960333Y-94196000D02*
X126293666Y-94229333D01*
X126293666Y-94229333D02*
X126260333Y-94196000D01*
X126260333Y-94196000D02*
X126227000Y-94129333D01*
X126227000Y-94129333D02*
X126227000Y-93962667D01*
X126227000Y-93962667D02*
X126260333Y-93896000D01*
X126260333Y-93896000D02*
X126293666Y-93862667D01*
X126293666Y-93862667D02*
X126360333Y-93829333D01*
X126360333Y-93829333D02*
X126527000Y-93829333D01*
X126527000Y-93829333D02*
X126593666Y-93862667D01*
X126593666Y-93862667D02*
X126627000Y-93896000D01*
X126627000Y-93896000D02*
X126660333Y-93962667D01*
X126660333Y-93962667D02*
X126660333Y-94129333D01*
X126660333Y-94129333D02*
X126627000Y-94196000D01*
X126627000Y-94196000D02*
X126593666Y-94229333D01*
X125960333Y-93629333D02*
X126660333Y-93396000D01*
X126660333Y-93396000D02*
X125960333Y-93162666D01*
X181237000Y-94354666D02*
X181270333Y-94254666D01*
X181270333Y-94254666D02*
X181270333Y-94088000D01*
X181270333Y-94088000D02*
X181237000Y-94021333D01*
X181237000Y-94021333D02*
X181203666Y-93988000D01*
X181203666Y-93988000D02*
X181137000Y-93954666D01*
X181137000Y-93954666D02*
X181070333Y-93954666D01*
X181070333Y-93954666D02*
X181003666Y-93988000D01*
X181003666Y-93988000D02*
X180970333Y-94021333D01*
X180970333Y-94021333D02*
X180937000Y-94088000D01*
X180937000Y-94088000D02*
X180903666Y-94221333D01*
X180903666Y-94221333D02*
X180870333Y-94288000D01*
X180870333Y-94288000D02*
X180837000Y-94321333D01*
X180837000Y-94321333D02*
X180770333Y-94354666D01*
X180770333Y-94354666D02*
X180703666Y-94354666D01*
X180703666Y-94354666D02*
X180637000Y-94321333D01*
X180637000Y-94321333D02*
X180603666Y-94288000D01*
X180603666Y-94288000D02*
X180570333Y-94221333D01*
X180570333Y-94221333D02*
X180570333Y-94054666D01*
X180570333Y-94054666D02*
X180603666Y-93954666D01*
X181270333Y-93654666D02*
X180570333Y-93654666D01*
X180570333Y-93654666D02*
X180570333Y-93487999D01*
X180570333Y-93487999D02*
X180603666Y-93387999D01*
X180603666Y-93387999D02*
X180670333Y-93321333D01*
X180670333Y-93321333D02*
X180737000Y-93287999D01*
X180737000Y-93287999D02*
X180870333Y-93254666D01*
X180870333Y-93254666D02*
X180970333Y-93254666D01*
X180970333Y-93254666D02*
X181103666Y-93287999D01*
X181103666Y-93287999D02*
X181170333Y-93321333D01*
X181170333Y-93321333D02*
X181237000Y-93387999D01*
X181237000Y-93387999D02*
X181270333Y-93487999D01*
X181270333Y-93487999D02*
X181270333Y-93654666D01*
X181070333Y-92987999D02*
X181070333Y-92654666D01*
X181270333Y-93054666D02*
X180570333Y-92821333D01*
X180570333Y-92821333D02*
X181270333Y-92587999D01*
X130057666Y-97256666D02*
X130024333Y-97323333D01*
X130024333Y-97323333D02*
X130024333Y-97423333D01*
X130024333Y-97423333D02*
X130057666Y-97523333D01*
X130057666Y-97523333D02*
X130124333Y-97590000D01*
X130124333Y-97590000D02*
X130191000Y-97623333D01*
X130191000Y-97623333D02*
X130324333Y-97656666D01*
X130324333Y-97656666D02*
X130424333Y-97656666D01*
X130424333Y-97656666D02*
X130557666Y-97623333D01*
X130557666Y-97623333D02*
X130624333Y-97590000D01*
X130624333Y-97590000D02*
X130691000Y-97523333D01*
X130691000Y-97523333D02*
X130724333Y-97423333D01*
X130724333Y-97423333D02*
X130724333Y-97356666D01*
X130724333Y-97356666D02*
X130691000Y-97256666D01*
X130691000Y-97256666D02*
X130657666Y-97223333D01*
X130657666Y-97223333D02*
X130424333Y-97223333D01*
X130424333Y-97223333D02*
X130424333Y-97356666D01*
X130724333Y-96923333D02*
X130024333Y-96923333D01*
X130024333Y-96923333D02*
X130724333Y-96523333D01*
X130724333Y-96523333D02*
X130024333Y-96523333D01*
X130724333Y-96190000D02*
X130024333Y-96190000D01*
X130024333Y-96190000D02*
X130024333Y-96023333D01*
X130024333Y-96023333D02*
X130057666Y-95923333D01*
X130057666Y-95923333D02*
X130124333Y-95856667D01*
X130124333Y-95856667D02*
X130191000Y-95823333D01*
X130191000Y-95823333D02*
X130324333Y-95790000D01*
X130324333Y-95790000D02*
X130424333Y-95790000D01*
X130424333Y-95790000D02*
X130557666Y-95823333D01*
X130557666Y-95823333D02*
X130624333Y-95856667D01*
X130624333Y-95856667D02*
X130691000Y-95923333D01*
X130691000Y-95923333D02*
X130724333Y-96023333D01*
X130724333Y-96023333D02*
X130724333Y-96190000D01*
X177046000Y-94481666D02*
X177079333Y-94381666D01*
X177079333Y-94381666D02*
X177079333Y-94215000D01*
X177079333Y-94215000D02*
X177046000Y-94148333D01*
X177046000Y-94148333D02*
X177012666Y-94115000D01*
X177012666Y-94115000D02*
X176946000Y-94081666D01*
X176946000Y-94081666D02*
X176879333Y-94081666D01*
X176879333Y-94081666D02*
X176812666Y-94115000D01*
X176812666Y-94115000D02*
X176779333Y-94148333D01*
X176779333Y-94148333D02*
X176746000Y-94215000D01*
X176746000Y-94215000D02*
X176712666Y-94348333D01*
X176712666Y-94348333D02*
X176679333Y-94415000D01*
X176679333Y-94415000D02*
X176646000Y-94448333D01*
X176646000Y-94448333D02*
X176579333Y-94481666D01*
X176579333Y-94481666D02*
X176512666Y-94481666D01*
X176512666Y-94481666D02*
X176446000Y-94448333D01*
X176446000Y-94448333D02*
X176412666Y-94415000D01*
X176412666Y-94415000D02*
X176379333Y-94348333D01*
X176379333Y-94348333D02*
X176379333Y-94181666D01*
X176379333Y-94181666D02*
X176412666Y-94081666D01*
X177079333Y-93781666D02*
X176379333Y-93781666D01*
X176379333Y-93781666D02*
X176379333Y-93614999D01*
X176379333Y-93614999D02*
X176412666Y-93514999D01*
X176412666Y-93514999D02*
X176479333Y-93448333D01*
X176479333Y-93448333D02*
X176546000Y-93414999D01*
X176546000Y-93414999D02*
X176679333Y-93381666D01*
X176679333Y-93381666D02*
X176779333Y-93381666D01*
X176779333Y-93381666D02*
X176912666Y-93414999D01*
X176912666Y-93414999D02*
X176979333Y-93448333D01*
X176979333Y-93448333D02*
X177046000Y-93514999D01*
X177046000Y-93514999D02*
X177079333Y-93614999D01*
X177079333Y-93614999D02*
X177079333Y-93781666D01*
X176879333Y-93114999D02*
X176879333Y-92781666D01*
X177079333Y-93181666D02*
X176379333Y-92948333D01*
X176379333Y-92948333D02*
X177079333Y-92714999D01*
X115468333Y-101514333D02*
X115068333Y-101514333D01*
X115268333Y-101514333D02*
X115268333Y-100814333D01*
X115268333Y-100814333D02*
X115201666Y-100914333D01*
X115201666Y-100914333D02*
X115135000Y-100981000D01*
X115135000Y-100981000D02*
X115068333Y-101014333D01*
X116135000Y-101514333D02*
X115735000Y-101514333D01*
X115935000Y-101514333D02*
X115935000Y-100814333D01*
X115935000Y-100814333D02*
X115868333Y-100914333D01*
X115868333Y-100914333D02*
X115801667Y-100981000D01*
X115801667Y-100981000D02*
X115735000Y-101014333D01*
X191484333Y-128136666D02*
X191484333Y-127803333D01*
X191684333Y-128203333D02*
X190984333Y-127970000D01*
X190984333Y-127970000D02*
X191684333Y-127736666D01*
X191017666Y-127136666D02*
X190984333Y-127203333D01*
X190984333Y-127203333D02*
X190984333Y-127303333D01*
X190984333Y-127303333D02*
X191017666Y-127403333D01*
X191017666Y-127403333D02*
X191084333Y-127470000D01*
X191084333Y-127470000D02*
X191151000Y-127503333D01*
X191151000Y-127503333D02*
X191284333Y-127536666D01*
X191284333Y-127536666D02*
X191384333Y-127536666D01*
X191384333Y-127536666D02*
X191517666Y-127503333D01*
X191517666Y-127503333D02*
X191584333Y-127470000D01*
X191584333Y-127470000D02*
X191651000Y-127403333D01*
X191651000Y-127403333D02*
X191684333Y-127303333D01*
X191684333Y-127303333D02*
X191684333Y-127236666D01*
X191684333Y-127236666D02*
X191651000Y-127136666D01*
X191651000Y-127136666D02*
X191617666Y-127103333D01*
X191617666Y-127103333D02*
X191384333Y-127103333D01*
X191384333Y-127103333D02*
X191384333Y-127236666D01*
X191684333Y-126803333D02*
X190984333Y-126803333D01*
X190984333Y-126803333D02*
X191684333Y-126403333D01*
X191684333Y-126403333D02*
X190984333Y-126403333D01*
X191684333Y-126070000D02*
X190984333Y-126070000D01*
X190984333Y-126070000D02*
X190984333Y-125903333D01*
X190984333Y-125903333D02*
X191017666Y-125803333D01*
X191017666Y-125803333D02*
X191084333Y-125736667D01*
X191084333Y-125736667D02*
X191151000Y-125703333D01*
X191151000Y-125703333D02*
X191284333Y-125670000D01*
X191284333Y-125670000D02*
X191384333Y-125670000D01*
X191384333Y-125670000D02*
X191517666Y-125703333D01*
X191517666Y-125703333D02*
X191584333Y-125736667D01*
X191584333Y-125736667D02*
X191651000Y-125803333D01*
X191651000Y-125803333D02*
X191684333Y-125903333D01*
X191684333Y-125903333D02*
X191684333Y-126070000D01*
X176412666Y-99796666D02*
X176379333Y-99863333D01*
X176379333Y-99863333D02*
X176379333Y-99963333D01*
X176379333Y-99963333D02*
X176412666Y-100063333D01*
X176412666Y-100063333D02*
X176479333Y-100130000D01*
X176479333Y-100130000D02*
X176546000Y-100163333D01*
X176546000Y-100163333D02*
X176679333Y-100196666D01*
X176679333Y-100196666D02*
X176779333Y-100196666D01*
X176779333Y-100196666D02*
X176912666Y-100163333D01*
X176912666Y-100163333D02*
X176979333Y-100130000D01*
X176979333Y-100130000D02*
X177046000Y-100063333D01*
X177046000Y-100063333D02*
X177079333Y-99963333D01*
X177079333Y-99963333D02*
X177079333Y-99896666D01*
X177079333Y-99896666D02*
X177046000Y-99796666D01*
X177046000Y-99796666D02*
X177012666Y-99763333D01*
X177012666Y-99763333D02*
X176779333Y-99763333D01*
X176779333Y-99763333D02*
X176779333Y-99896666D01*
X177079333Y-99463333D02*
X176379333Y-99463333D01*
X176379333Y-99463333D02*
X177079333Y-99063333D01*
X177079333Y-99063333D02*
X176379333Y-99063333D01*
X177079333Y-98730000D02*
X176379333Y-98730000D01*
X176379333Y-98730000D02*
X176379333Y-98563333D01*
X176379333Y-98563333D02*
X176412666Y-98463333D01*
X176412666Y-98463333D02*
X176479333Y-98396667D01*
X176479333Y-98396667D02*
X176546000Y-98363333D01*
X176546000Y-98363333D02*
X176679333Y-98330000D01*
X176679333Y-98330000D02*
X176779333Y-98330000D01*
X176779333Y-98330000D02*
X176912666Y-98363333D01*
X176912666Y-98363333D02*
X176979333Y-98396667D01*
X176979333Y-98396667D02*
X177046000Y-98463333D01*
X177046000Y-98463333D02*
X177079333Y-98563333D01*
X177079333Y-98563333D02*
X177079333Y-98730000D01*
X191668333Y-99609333D02*
X191268333Y-99609333D01*
X191468333Y-99609333D02*
X191468333Y-98909333D01*
X191468333Y-98909333D02*
X191401666Y-99009333D01*
X191401666Y-99009333D02*
X191335000Y-99076000D01*
X191335000Y-99076000D02*
X191268333Y-99109333D01*
X192101667Y-98909333D02*
X192168333Y-98909333D01*
X192168333Y-98909333D02*
X192235000Y-98942666D01*
X192235000Y-98942666D02*
X192268333Y-98976000D01*
X192268333Y-98976000D02*
X192301667Y-99042666D01*
X192301667Y-99042666D02*
X192335000Y-99176000D01*
X192335000Y-99176000D02*
X192335000Y-99342666D01*
X192335000Y-99342666D02*
X192301667Y-99476000D01*
X192301667Y-99476000D02*
X192268333Y-99542666D01*
X192268333Y-99542666D02*
X192235000Y-99576000D01*
X192235000Y-99576000D02*
X192168333Y-99609333D01*
X192168333Y-99609333D02*
X192101667Y-99609333D01*
X192101667Y-99609333D02*
X192035000Y-99576000D01*
X192035000Y-99576000D02*
X192001667Y-99542666D01*
X192001667Y-99542666D02*
X191968333Y-99476000D01*
X191968333Y-99476000D02*
X191935000Y-99342666D01*
X191935000Y-99342666D02*
X191935000Y-99176000D01*
X191935000Y-99176000D02*
X191968333Y-99042666D01*
X191968333Y-99042666D02*
X192001667Y-98976000D01*
X192001667Y-98976000D02*
X192035000Y-98942666D01*
X192035000Y-98942666D02*
X192101667Y-98909333D01*
D12*
X186928095Y-78617619D02*
X186928095Y-77617619D01*
X186928095Y-77617619D02*
X187309047Y-77617619D01*
X187309047Y-77617619D02*
X187404285Y-77665238D01*
X187404285Y-77665238D02*
X187451904Y-77712857D01*
X187451904Y-77712857D02*
X187499523Y-77808095D01*
X187499523Y-77808095D02*
X187499523Y-77950952D01*
X187499523Y-77950952D02*
X187451904Y-78046190D01*
X187451904Y-78046190D02*
X187404285Y-78093809D01*
X187404285Y-78093809D02*
X187309047Y-78141428D01*
X187309047Y-78141428D02*
X186928095Y-78141428D01*
X187880476Y-78331904D02*
X188356666Y-78331904D01*
X187785238Y-78617619D02*
X188118571Y-77617619D01*
X188118571Y-77617619D02*
X188451904Y-78617619D01*
X189261428Y-77617619D02*
X188785238Y-77617619D01*
X188785238Y-77617619D02*
X188737619Y-78093809D01*
X188737619Y-78093809D02*
X188785238Y-78046190D01*
X188785238Y-78046190D02*
X188880476Y-77998571D01*
X188880476Y-77998571D02*
X189118571Y-77998571D01*
X189118571Y-77998571D02*
X189213809Y-78046190D01*
X189213809Y-78046190D02*
X189261428Y-78093809D01*
X189261428Y-78093809D02*
X189309047Y-78189047D01*
X189309047Y-78189047D02*
X189309047Y-78427142D01*
X189309047Y-78427142D02*
X189261428Y-78522380D01*
X189261428Y-78522380D02*
X189213809Y-78570000D01*
X189213809Y-78570000D02*
X189118571Y-78617619D01*
X189118571Y-78617619D02*
X188880476Y-78617619D01*
X188880476Y-78617619D02*
X188785238Y-78570000D01*
X188785238Y-78570000D02*
X188737619Y-78522380D01*
D11*
X191649333Y-111676000D02*
X191682666Y-111642666D01*
X191682666Y-111642666D02*
X191749333Y-111609333D01*
X191749333Y-111609333D02*
X191916000Y-111609333D01*
X191916000Y-111609333D02*
X191982666Y-111642666D01*
X191982666Y-111642666D02*
X192016000Y-111676000D01*
X192016000Y-111676000D02*
X192049333Y-111742666D01*
X192049333Y-111742666D02*
X192049333Y-111809333D01*
X192049333Y-111809333D02*
X192016000Y-111909333D01*
X192016000Y-111909333D02*
X191616000Y-112309333D01*
X191616000Y-112309333D02*
X192049333Y-112309333D01*
X192482667Y-111609333D02*
X192549333Y-111609333D01*
X192549333Y-111609333D02*
X192616000Y-111642666D01*
X192616000Y-111642666D02*
X192649333Y-111676000D01*
X192649333Y-111676000D02*
X192682667Y-111742666D01*
X192682667Y-111742666D02*
X192716000Y-111876000D01*
X192716000Y-111876000D02*
X192716000Y-112042666D01*
X192716000Y-112042666D02*
X192682667Y-112176000D01*
X192682667Y-112176000D02*
X192649333Y-112242666D01*
X192649333Y-112242666D02*
X192616000Y-112276000D01*
X192616000Y-112276000D02*
X192549333Y-112309333D01*
X192549333Y-112309333D02*
X192482667Y-112309333D01*
X192482667Y-112309333D02*
X192416000Y-112276000D01*
X192416000Y-112276000D02*
X192382667Y-112242666D01*
X192382667Y-112242666D02*
X192349333Y-112176000D01*
X192349333Y-112176000D02*
X192316000Y-112042666D01*
X192316000Y-112042666D02*
X192316000Y-111876000D01*
X192316000Y-111876000D02*
X192349333Y-111742666D01*
X192349333Y-111742666D02*
X192382667Y-111676000D01*
X192382667Y-111676000D02*
X192416000Y-111642666D01*
X192416000Y-111642666D02*
X192482667Y-111609333D01*
X115452666Y-111861666D02*
X115419333Y-111928333D01*
X115419333Y-111928333D02*
X115419333Y-112028333D01*
X115419333Y-112028333D02*
X115452666Y-112128333D01*
X115452666Y-112128333D02*
X115519333Y-112195000D01*
X115519333Y-112195000D02*
X115586000Y-112228333D01*
X115586000Y-112228333D02*
X115719333Y-112261666D01*
X115719333Y-112261666D02*
X115819333Y-112261666D01*
X115819333Y-112261666D02*
X115952666Y-112228333D01*
X115952666Y-112228333D02*
X116019333Y-112195000D01*
X116019333Y-112195000D02*
X116086000Y-112128333D01*
X116086000Y-112128333D02*
X116119333Y-112028333D01*
X116119333Y-112028333D02*
X116119333Y-111961666D01*
X116119333Y-111961666D02*
X116086000Y-111861666D01*
X116086000Y-111861666D02*
X116052666Y-111828333D01*
X116052666Y-111828333D02*
X115819333Y-111828333D01*
X115819333Y-111828333D02*
X115819333Y-111961666D01*
X116119333Y-111528333D02*
X115419333Y-111528333D01*
X115419333Y-111528333D02*
X116119333Y-111128333D01*
X116119333Y-111128333D02*
X115419333Y-111128333D01*
X116119333Y-110795000D02*
X115419333Y-110795000D01*
X115419333Y-110795000D02*
X115419333Y-110628333D01*
X115419333Y-110628333D02*
X115452666Y-110528333D01*
X115452666Y-110528333D02*
X115519333Y-110461667D01*
X115519333Y-110461667D02*
X115586000Y-110428333D01*
X115586000Y-110428333D02*
X115719333Y-110395000D01*
X115719333Y-110395000D02*
X115819333Y-110395000D01*
X115819333Y-110395000D02*
X115952666Y-110428333D01*
X115952666Y-110428333D02*
X116019333Y-110461667D01*
X116019333Y-110461667D02*
X116086000Y-110528333D01*
X116086000Y-110528333D02*
X116119333Y-110628333D01*
X116119333Y-110628333D02*
X116119333Y-110795000D01*
D12*
X188150476Y-72292095D02*
X188150476Y-71492095D01*
X188607619Y-72292095D02*
X188264761Y-71834952D01*
X188607619Y-71492095D02*
X188150476Y-71949238D01*
D11*
X125993666Y-97256666D02*
X125960333Y-97323333D01*
X125960333Y-97323333D02*
X125960333Y-97423333D01*
X125960333Y-97423333D02*
X125993666Y-97523333D01*
X125993666Y-97523333D02*
X126060333Y-97590000D01*
X126060333Y-97590000D02*
X126127000Y-97623333D01*
X126127000Y-97623333D02*
X126260333Y-97656666D01*
X126260333Y-97656666D02*
X126360333Y-97656666D01*
X126360333Y-97656666D02*
X126493666Y-97623333D01*
X126493666Y-97623333D02*
X126560333Y-97590000D01*
X126560333Y-97590000D02*
X126627000Y-97523333D01*
X126627000Y-97523333D02*
X126660333Y-97423333D01*
X126660333Y-97423333D02*
X126660333Y-97356666D01*
X126660333Y-97356666D02*
X126627000Y-97256666D01*
X126627000Y-97256666D02*
X126593666Y-97223333D01*
X126593666Y-97223333D02*
X126360333Y-97223333D01*
X126360333Y-97223333D02*
X126360333Y-97356666D01*
X126660333Y-96923333D02*
X125960333Y-96923333D01*
X125960333Y-96923333D02*
X126660333Y-96523333D01*
X126660333Y-96523333D02*
X125960333Y-96523333D01*
X126660333Y-96190000D02*
X125960333Y-96190000D01*
X125960333Y-96190000D02*
X125960333Y-96023333D01*
X125960333Y-96023333D02*
X125993666Y-95923333D01*
X125993666Y-95923333D02*
X126060333Y-95856667D01*
X126060333Y-95856667D02*
X126127000Y-95823333D01*
X126127000Y-95823333D02*
X126260333Y-95790000D01*
X126260333Y-95790000D02*
X126360333Y-95790000D01*
X126360333Y-95790000D02*
X126493666Y-95823333D01*
X126493666Y-95823333D02*
X126560333Y-95856667D01*
X126560333Y-95856667D02*
X126627000Y-95923333D01*
X126627000Y-95923333D02*
X126660333Y-96023333D01*
X126660333Y-96023333D02*
X126660333Y-96190000D01*
X125960333Y-107850000D02*
X125960333Y-107416666D01*
X125960333Y-107416666D02*
X126227000Y-107650000D01*
X126227000Y-107650000D02*
X126227000Y-107550000D01*
X126227000Y-107550000D02*
X126260333Y-107483333D01*
X126260333Y-107483333D02*
X126293666Y-107450000D01*
X126293666Y-107450000D02*
X126360333Y-107416666D01*
X126360333Y-107416666D02*
X126527000Y-107416666D01*
X126527000Y-107416666D02*
X126593666Y-107450000D01*
X126593666Y-107450000D02*
X126627000Y-107483333D01*
X126627000Y-107483333D02*
X126660333Y-107550000D01*
X126660333Y-107550000D02*
X126660333Y-107750000D01*
X126660333Y-107750000D02*
X126627000Y-107816666D01*
X126627000Y-107816666D02*
X126593666Y-107850000D01*
X126593666Y-107116666D02*
X126627000Y-107083333D01*
X126627000Y-107083333D02*
X126660333Y-107116666D01*
X126660333Y-107116666D02*
X126627000Y-107149999D01*
X126627000Y-107149999D02*
X126593666Y-107116666D01*
X126593666Y-107116666D02*
X126660333Y-107116666D01*
X125960333Y-106850000D02*
X125960333Y-106416666D01*
X125960333Y-106416666D02*
X126227000Y-106650000D01*
X126227000Y-106650000D02*
X126227000Y-106550000D01*
X126227000Y-106550000D02*
X126260333Y-106483333D01*
X126260333Y-106483333D02*
X126293666Y-106450000D01*
X126293666Y-106450000D02*
X126360333Y-106416666D01*
X126360333Y-106416666D02*
X126527000Y-106416666D01*
X126527000Y-106416666D02*
X126593666Y-106450000D01*
X126593666Y-106450000D02*
X126627000Y-106483333D01*
X126627000Y-106483333D02*
X126660333Y-106550000D01*
X126660333Y-106550000D02*
X126660333Y-106750000D01*
X126660333Y-106750000D02*
X126627000Y-106816666D01*
X126627000Y-106816666D02*
X126593666Y-106850000D01*
X130024333Y-109355000D02*
X130024333Y-109688333D01*
X130024333Y-109688333D02*
X130357666Y-109721666D01*
X130357666Y-109721666D02*
X130324333Y-109688333D01*
X130324333Y-109688333D02*
X130291000Y-109621666D01*
X130291000Y-109621666D02*
X130291000Y-109455000D01*
X130291000Y-109455000D02*
X130324333Y-109388333D01*
X130324333Y-109388333D02*
X130357666Y-109355000D01*
X130357666Y-109355000D02*
X130424333Y-109321666D01*
X130424333Y-109321666D02*
X130591000Y-109321666D01*
X130591000Y-109321666D02*
X130657666Y-109355000D01*
X130657666Y-109355000D02*
X130691000Y-109388333D01*
X130691000Y-109388333D02*
X130724333Y-109455000D01*
X130724333Y-109455000D02*
X130724333Y-109621666D01*
X130724333Y-109621666D02*
X130691000Y-109688333D01*
X130691000Y-109688333D02*
X130657666Y-109721666D01*
X130024333Y-109121666D02*
X130724333Y-108888333D01*
X130724333Y-108888333D02*
X130024333Y-108654999D01*
X130357666Y-95083333D02*
X130357666Y-94850000D01*
X130724333Y-94750000D02*
X130724333Y-95083333D01*
X130724333Y-95083333D02*
X130024333Y-95083333D01*
X130024333Y-95083333D02*
X130024333Y-94750000D01*
X130024333Y-94116667D02*
X130024333Y-94450000D01*
X130024333Y-94450000D02*
X130357666Y-94483333D01*
X130357666Y-94483333D02*
X130324333Y-94450000D01*
X130324333Y-94450000D02*
X130291000Y-94383333D01*
X130291000Y-94383333D02*
X130291000Y-94216667D01*
X130291000Y-94216667D02*
X130324333Y-94150000D01*
X130324333Y-94150000D02*
X130357666Y-94116667D01*
X130357666Y-94116667D02*
X130424333Y-94083333D01*
X130424333Y-94083333D02*
X130591000Y-94083333D01*
X130591000Y-94083333D02*
X130657666Y-94116667D01*
X130657666Y-94116667D02*
X130691000Y-94150000D01*
X130691000Y-94150000D02*
X130724333Y-94216667D01*
X130724333Y-94216667D02*
X130724333Y-94383333D01*
X130724333Y-94383333D02*
X130691000Y-94450000D01*
X130691000Y-94450000D02*
X130657666Y-94483333D01*
X130024333Y-93883333D02*
X130724333Y-93650000D01*
X130724333Y-93650000D02*
X130024333Y-93416666D01*
X130024333Y-107850000D02*
X130024333Y-107416666D01*
X130024333Y-107416666D02*
X130291000Y-107650000D01*
X130291000Y-107650000D02*
X130291000Y-107550000D01*
X130291000Y-107550000D02*
X130324333Y-107483333D01*
X130324333Y-107483333D02*
X130357666Y-107450000D01*
X130357666Y-107450000D02*
X130424333Y-107416666D01*
X130424333Y-107416666D02*
X130591000Y-107416666D01*
X130591000Y-107416666D02*
X130657666Y-107450000D01*
X130657666Y-107450000D02*
X130691000Y-107483333D01*
X130691000Y-107483333D02*
X130724333Y-107550000D01*
X130724333Y-107550000D02*
X130724333Y-107750000D01*
X130724333Y-107750000D02*
X130691000Y-107816666D01*
X130691000Y-107816666D02*
X130657666Y-107850000D01*
X130657666Y-107116666D02*
X130691000Y-107083333D01*
X130691000Y-107083333D02*
X130724333Y-107116666D01*
X130724333Y-107116666D02*
X130691000Y-107149999D01*
X130691000Y-107149999D02*
X130657666Y-107116666D01*
X130657666Y-107116666D02*
X130724333Y-107116666D01*
X130024333Y-106850000D02*
X130024333Y-106416666D01*
X130024333Y-106416666D02*
X130291000Y-106650000D01*
X130291000Y-106650000D02*
X130291000Y-106550000D01*
X130291000Y-106550000D02*
X130324333Y-106483333D01*
X130324333Y-106483333D02*
X130357666Y-106450000D01*
X130357666Y-106450000D02*
X130424333Y-106416666D01*
X130424333Y-106416666D02*
X130591000Y-106416666D01*
X130591000Y-106416666D02*
X130657666Y-106450000D01*
X130657666Y-106450000D02*
X130691000Y-106483333D01*
X130691000Y-106483333D02*
X130724333Y-106550000D01*
X130724333Y-106550000D02*
X130724333Y-106750000D01*
X130724333Y-106750000D02*
X130691000Y-106816666D01*
X130691000Y-106816666D02*
X130657666Y-106850000D01*
X125960333Y-117789333D02*
X126660333Y-117556000D01*
X126660333Y-117556000D02*
X125960333Y-117322666D01*
X126660333Y-117089333D02*
X125960333Y-117089333D01*
X126660333Y-116756000D02*
X125960333Y-116756000D01*
X125960333Y-116756000D02*
X126660333Y-116356000D01*
X126660333Y-116356000D02*
X125960333Y-116356000D01*
X125960333Y-109355000D02*
X125960333Y-109688333D01*
X125960333Y-109688333D02*
X126293666Y-109721666D01*
X126293666Y-109721666D02*
X126260333Y-109688333D01*
X126260333Y-109688333D02*
X126227000Y-109621666D01*
X126227000Y-109621666D02*
X126227000Y-109455000D01*
X126227000Y-109455000D02*
X126260333Y-109388333D01*
X126260333Y-109388333D02*
X126293666Y-109355000D01*
X126293666Y-109355000D02*
X126360333Y-109321666D01*
X126360333Y-109321666D02*
X126527000Y-109321666D01*
X126527000Y-109321666D02*
X126593666Y-109355000D01*
X126593666Y-109355000D02*
X126627000Y-109388333D01*
X126627000Y-109388333D02*
X126660333Y-109455000D01*
X126660333Y-109455000D02*
X126660333Y-109621666D01*
X126660333Y-109621666D02*
X126627000Y-109688333D01*
X126627000Y-109688333D02*
X126593666Y-109721666D01*
X125960333Y-109121666D02*
X126660333Y-108888333D01*
X126660333Y-108888333D02*
X125960333Y-108654999D01*
X190763666Y-112496666D02*
X190730333Y-112563333D01*
X190730333Y-112563333D02*
X190730333Y-112663333D01*
X190730333Y-112663333D02*
X190763666Y-112763333D01*
X190763666Y-112763333D02*
X190830333Y-112830000D01*
X190830333Y-112830000D02*
X190897000Y-112863333D01*
X190897000Y-112863333D02*
X191030333Y-112896666D01*
X191030333Y-112896666D02*
X191130333Y-112896666D01*
X191130333Y-112896666D02*
X191263666Y-112863333D01*
X191263666Y-112863333D02*
X191330333Y-112830000D01*
X191330333Y-112830000D02*
X191397000Y-112763333D01*
X191397000Y-112763333D02*
X191430333Y-112663333D01*
X191430333Y-112663333D02*
X191430333Y-112596666D01*
X191430333Y-112596666D02*
X191397000Y-112496666D01*
X191397000Y-112496666D02*
X191363666Y-112463333D01*
X191363666Y-112463333D02*
X191130333Y-112463333D01*
X191130333Y-112463333D02*
X191130333Y-112596666D01*
X191430333Y-112163333D02*
X190730333Y-112163333D01*
X190730333Y-112163333D02*
X191430333Y-111763333D01*
X191430333Y-111763333D02*
X190730333Y-111763333D01*
X191430333Y-111430000D02*
X190730333Y-111430000D01*
X190730333Y-111430000D02*
X190730333Y-111263333D01*
X190730333Y-111263333D02*
X190763666Y-111163333D01*
X190763666Y-111163333D02*
X190830333Y-111096667D01*
X190830333Y-111096667D02*
X190897000Y-111063333D01*
X190897000Y-111063333D02*
X191030333Y-111030000D01*
X191030333Y-111030000D02*
X191130333Y-111030000D01*
X191130333Y-111030000D02*
X191263666Y-111063333D01*
X191263666Y-111063333D02*
X191330333Y-111096667D01*
X191330333Y-111096667D02*
X191397000Y-111163333D01*
X191397000Y-111163333D02*
X191430333Y-111263333D01*
X191430333Y-111263333D02*
X191430333Y-111430000D01*
D12*
X116717619Y-71580476D02*
X116241428Y-71913809D01*
X116717619Y-72151904D02*
X115717619Y-72151904D01*
X115717619Y-72151904D02*
X115717619Y-71770952D01*
X115717619Y-71770952D02*
X115765238Y-71675714D01*
X115765238Y-71675714D02*
X115812857Y-71628095D01*
X115812857Y-71628095D02*
X115908095Y-71580476D01*
X115908095Y-71580476D02*
X116050952Y-71580476D01*
X116050952Y-71580476D02*
X116146190Y-71628095D01*
X116146190Y-71628095D02*
X116193809Y-71675714D01*
X116193809Y-71675714D02*
X116241428Y-71770952D01*
X116241428Y-71770952D02*
X116241428Y-72151904D01*
X116193809Y-71151904D02*
X116193809Y-70818571D01*
X116717619Y-70675714D02*
X116717619Y-71151904D01*
X116717619Y-71151904D02*
X115717619Y-71151904D01*
X115717619Y-71151904D02*
X115717619Y-70675714D01*
X116670000Y-70294761D02*
X116717619Y-70151904D01*
X116717619Y-70151904D02*
X116717619Y-69913809D01*
X116717619Y-69913809D02*
X116670000Y-69818571D01*
X116670000Y-69818571D02*
X116622380Y-69770952D01*
X116622380Y-69770952D02*
X116527142Y-69723333D01*
X116527142Y-69723333D02*
X116431904Y-69723333D01*
X116431904Y-69723333D02*
X116336666Y-69770952D01*
X116336666Y-69770952D02*
X116289047Y-69818571D01*
X116289047Y-69818571D02*
X116241428Y-69913809D01*
X116241428Y-69913809D02*
X116193809Y-70104285D01*
X116193809Y-70104285D02*
X116146190Y-70199523D01*
X116146190Y-70199523D02*
X116098571Y-70247142D01*
X116098571Y-70247142D02*
X116003333Y-70294761D01*
X116003333Y-70294761D02*
X115908095Y-70294761D01*
X115908095Y-70294761D02*
X115812857Y-70247142D01*
X115812857Y-70247142D02*
X115765238Y-70199523D01*
X115765238Y-70199523D02*
X115717619Y-70104285D01*
X115717619Y-70104285D02*
X115717619Y-69866190D01*
X115717619Y-69866190D02*
X115765238Y-69723333D01*
X116193809Y-69294761D02*
X116193809Y-68961428D01*
X116717619Y-68818571D02*
X116717619Y-69294761D01*
X116717619Y-69294761D02*
X115717619Y-69294761D01*
X115717619Y-69294761D02*
X115717619Y-68818571D01*
X115717619Y-68532856D02*
X115717619Y-67961428D01*
X116717619Y-68247142D02*
X115717619Y-68247142D01*
D11*
X125993666Y-112526666D02*
X125960333Y-112593333D01*
X125960333Y-112593333D02*
X125960333Y-112693333D01*
X125960333Y-112693333D02*
X125993666Y-112793333D01*
X125993666Y-112793333D02*
X126060333Y-112860000D01*
X126060333Y-112860000D02*
X126127000Y-112893333D01*
X126127000Y-112893333D02*
X126260333Y-112926666D01*
X126260333Y-112926666D02*
X126360333Y-112926666D01*
X126360333Y-112926666D02*
X126493666Y-112893333D01*
X126493666Y-112893333D02*
X126560333Y-112860000D01*
X126560333Y-112860000D02*
X126627000Y-112793333D01*
X126627000Y-112793333D02*
X126660333Y-112693333D01*
X126660333Y-112693333D02*
X126660333Y-112626666D01*
X126660333Y-112626666D02*
X126627000Y-112526666D01*
X126627000Y-112526666D02*
X126593666Y-112493333D01*
X126593666Y-112493333D02*
X126360333Y-112493333D01*
X126360333Y-112493333D02*
X126360333Y-112626666D01*
X126660333Y-112193333D02*
X125960333Y-112193333D01*
X125960333Y-112193333D02*
X126660333Y-111793333D01*
X126660333Y-111793333D02*
X125960333Y-111793333D01*
X126660333Y-111460000D02*
X125960333Y-111460000D01*
X125960333Y-111460000D02*
X125960333Y-111293333D01*
X125960333Y-111293333D02*
X125993666Y-111193333D01*
X125993666Y-111193333D02*
X126060333Y-111126667D01*
X126060333Y-111126667D02*
X126127000Y-111093333D01*
X126127000Y-111093333D02*
X126260333Y-111060000D01*
X126260333Y-111060000D02*
X126360333Y-111060000D01*
X126360333Y-111060000D02*
X126493666Y-111093333D01*
X126493666Y-111093333D02*
X126560333Y-111126667D01*
X126560333Y-111126667D02*
X126627000Y-111193333D01*
X126627000Y-111193333D02*
X126660333Y-111293333D01*
X126660333Y-111293333D02*
X126660333Y-111460000D01*
X130724333Y-101668333D02*
X130391000Y-101901666D01*
X130724333Y-102068333D02*
X130024333Y-102068333D01*
X130024333Y-102068333D02*
X130024333Y-101801666D01*
X130024333Y-101801666D02*
X130057666Y-101735000D01*
X130057666Y-101735000D02*
X130091000Y-101701666D01*
X130091000Y-101701666D02*
X130157666Y-101668333D01*
X130157666Y-101668333D02*
X130257666Y-101668333D01*
X130257666Y-101668333D02*
X130324333Y-101701666D01*
X130324333Y-101701666D02*
X130357666Y-101735000D01*
X130357666Y-101735000D02*
X130391000Y-101801666D01*
X130391000Y-101801666D02*
X130391000Y-102068333D01*
X130357666Y-101368333D02*
X130357666Y-101135000D01*
X130724333Y-101035000D02*
X130724333Y-101368333D01*
X130724333Y-101368333D02*
X130024333Y-101368333D01*
X130024333Y-101368333D02*
X130024333Y-101035000D01*
X130357666Y-100501667D02*
X130357666Y-100735000D01*
X130724333Y-100735000D02*
X130024333Y-100735000D01*
X130024333Y-100735000D02*
X130024333Y-100401667D01*
X115068333Y-113581000D02*
X115101666Y-113547666D01*
X115101666Y-113547666D02*
X115168333Y-113514333D01*
X115168333Y-113514333D02*
X115335000Y-113514333D01*
X115335000Y-113514333D02*
X115401666Y-113547666D01*
X115401666Y-113547666D02*
X115435000Y-113581000D01*
X115435000Y-113581000D02*
X115468333Y-113647666D01*
X115468333Y-113647666D02*
X115468333Y-113714333D01*
X115468333Y-113714333D02*
X115435000Y-113814333D01*
X115435000Y-113814333D02*
X115035000Y-114214333D01*
X115035000Y-114214333D02*
X115468333Y-114214333D01*
X116135000Y-114214333D02*
X115735000Y-114214333D01*
X115935000Y-114214333D02*
X115935000Y-113514333D01*
X115935000Y-113514333D02*
X115868333Y-113614333D01*
X115868333Y-113614333D02*
X115801667Y-113681000D01*
X115801667Y-113681000D02*
X115735000Y-113714333D01*
X180603666Y-99669666D02*
X180570333Y-99736333D01*
X180570333Y-99736333D02*
X180570333Y-99836333D01*
X180570333Y-99836333D02*
X180603666Y-99936333D01*
X180603666Y-99936333D02*
X180670333Y-100003000D01*
X180670333Y-100003000D02*
X180737000Y-100036333D01*
X180737000Y-100036333D02*
X180870333Y-100069666D01*
X180870333Y-100069666D02*
X180970333Y-100069666D01*
X180970333Y-100069666D02*
X181103666Y-100036333D01*
X181103666Y-100036333D02*
X181170333Y-100003000D01*
X181170333Y-100003000D02*
X181237000Y-99936333D01*
X181237000Y-99936333D02*
X181270333Y-99836333D01*
X181270333Y-99836333D02*
X181270333Y-99769666D01*
X181270333Y-99769666D02*
X181237000Y-99669666D01*
X181237000Y-99669666D02*
X181203666Y-99636333D01*
X181203666Y-99636333D02*
X180970333Y-99636333D01*
X180970333Y-99636333D02*
X180970333Y-99769666D01*
X181270333Y-99336333D02*
X180570333Y-99336333D01*
X180570333Y-99336333D02*
X181270333Y-98936333D01*
X181270333Y-98936333D02*
X180570333Y-98936333D01*
X181270333Y-98603000D02*
X180570333Y-98603000D01*
X180570333Y-98603000D02*
X180570333Y-98436333D01*
X180570333Y-98436333D02*
X180603666Y-98336333D01*
X180603666Y-98336333D02*
X180670333Y-98269667D01*
X180670333Y-98269667D02*
X180737000Y-98236333D01*
X180737000Y-98236333D02*
X180870333Y-98203000D01*
X180870333Y-98203000D02*
X180970333Y-98203000D01*
X180970333Y-98203000D02*
X181103666Y-98236333D01*
X181103666Y-98236333D02*
X181170333Y-98269667D01*
X181170333Y-98269667D02*
X181237000Y-98336333D01*
X181237000Y-98336333D02*
X181270333Y-98436333D01*
X181270333Y-98436333D02*
X181270333Y-98603000D01*
X177046000Y-91941666D02*
X177079333Y-91841666D01*
X177079333Y-91841666D02*
X177079333Y-91675000D01*
X177079333Y-91675000D02*
X177046000Y-91608333D01*
X177046000Y-91608333D02*
X177012666Y-91575000D01*
X177012666Y-91575000D02*
X176946000Y-91541666D01*
X176946000Y-91541666D02*
X176879333Y-91541666D01*
X176879333Y-91541666D02*
X176812666Y-91575000D01*
X176812666Y-91575000D02*
X176779333Y-91608333D01*
X176779333Y-91608333D02*
X176746000Y-91675000D01*
X176746000Y-91675000D02*
X176712666Y-91808333D01*
X176712666Y-91808333D02*
X176679333Y-91875000D01*
X176679333Y-91875000D02*
X176646000Y-91908333D01*
X176646000Y-91908333D02*
X176579333Y-91941666D01*
X176579333Y-91941666D02*
X176512666Y-91941666D01*
X176512666Y-91941666D02*
X176446000Y-91908333D01*
X176446000Y-91908333D02*
X176412666Y-91875000D01*
X176412666Y-91875000D02*
X176379333Y-91808333D01*
X176379333Y-91808333D02*
X176379333Y-91641666D01*
X176379333Y-91641666D02*
X176412666Y-91541666D01*
X177012666Y-90841666D02*
X177046000Y-90874999D01*
X177046000Y-90874999D02*
X177079333Y-90974999D01*
X177079333Y-90974999D02*
X177079333Y-91041666D01*
X177079333Y-91041666D02*
X177046000Y-91141666D01*
X177046000Y-91141666D02*
X176979333Y-91208333D01*
X176979333Y-91208333D02*
X176912666Y-91241666D01*
X176912666Y-91241666D02*
X176779333Y-91274999D01*
X176779333Y-91274999D02*
X176679333Y-91274999D01*
X176679333Y-91274999D02*
X176546000Y-91241666D01*
X176546000Y-91241666D02*
X176479333Y-91208333D01*
X176479333Y-91208333D02*
X176412666Y-91141666D01*
X176412666Y-91141666D02*
X176379333Y-91041666D01*
X176379333Y-91041666D02*
X176379333Y-90974999D01*
X176379333Y-90974999D02*
X176412666Y-90874999D01*
X176412666Y-90874999D02*
X176446000Y-90841666D01*
X177079333Y-90208333D02*
X177079333Y-90541666D01*
X177079333Y-90541666D02*
X176379333Y-90541666D01*
D12*
X120586667Y-76175000D02*
X120729524Y-76222619D01*
X120729524Y-76222619D02*
X120967619Y-76222619D01*
X120967619Y-76222619D02*
X121062857Y-76175000D01*
X121062857Y-76175000D02*
X121110476Y-76127380D01*
X121110476Y-76127380D02*
X121158095Y-76032142D01*
X121158095Y-76032142D02*
X121158095Y-75936904D01*
X121158095Y-75936904D02*
X121110476Y-75841666D01*
X121110476Y-75841666D02*
X121062857Y-75794047D01*
X121062857Y-75794047D02*
X120967619Y-75746428D01*
X120967619Y-75746428D02*
X120777143Y-75698809D01*
X120777143Y-75698809D02*
X120681905Y-75651190D01*
X120681905Y-75651190D02*
X120634286Y-75603571D01*
X120634286Y-75603571D02*
X120586667Y-75508333D01*
X120586667Y-75508333D02*
X120586667Y-75413095D01*
X120586667Y-75413095D02*
X120634286Y-75317857D01*
X120634286Y-75317857D02*
X120681905Y-75270238D01*
X120681905Y-75270238D02*
X120777143Y-75222619D01*
X120777143Y-75222619D02*
X121015238Y-75222619D01*
X121015238Y-75222619D02*
X121158095Y-75270238D01*
X121491429Y-75222619D02*
X121729524Y-76222619D01*
X121729524Y-76222619D02*
X121920000Y-75508333D01*
X121920000Y-75508333D02*
X122110476Y-76222619D01*
X122110476Y-76222619D02*
X122348572Y-75222619D01*
X122681905Y-75317857D02*
X122729524Y-75270238D01*
X122729524Y-75270238D02*
X122824762Y-75222619D01*
X122824762Y-75222619D02*
X123062857Y-75222619D01*
X123062857Y-75222619D02*
X123158095Y-75270238D01*
X123158095Y-75270238D02*
X123205714Y-75317857D01*
X123205714Y-75317857D02*
X123253333Y-75413095D01*
X123253333Y-75413095D02*
X123253333Y-75508333D01*
X123253333Y-75508333D02*
X123205714Y-75651190D01*
X123205714Y-75651190D02*
X122634286Y-76222619D01*
X122634286Y-76222619D02*
X123253333Y-76222619D01*
X191382619Y-75668094D02*
X190382619Y-75668094D01*
X190382619Y-75668094D02*
X190382619Y-75429999D01*
X190382619Y-75429999D02*
X190430238Y-75287142D01*
X190430238Y-75287142D02*
X190525476Y-75191904D01*
X190525476Y-75191904D02*
X190620714Y-75144285D01*
X190620714Y-75144285D02*
X190811190Y-75096666D01*
X190811190Y-75096666D02*
X190954047Y-75096666D01*
X190954047Y-75096666D02*
X191144523Y-75144285D01*
X191144523Y-75144285D02*
X191239761Y-75191904D01*
X191239761Y-75191904D02*
X191335000Y-75287142D01*
X191335000Y-75287142D02*
X191382619Y-75429999D01*
X191382619Y-75429999D02*
X191382619Y-75668094D01*
X191382619Y-74144285D02*
X191382619Y-74715713D01*
X191382619Y-74429999D02*
X190382619Y-74429999D01*
X190382619Y-74429999D02*
X190525476Y-74525237D01*
X190525476Y-74525237D02*
X190620714Y-74620475D01*
X190620714Y-74620475D02*
X190668333Y-74715713D01*
X180802619Y-75096666D02*
X180326428Y-75429999D01*
X180802619Y-75668094D02*
X179802619Y-75668094D01*
X179802619Y-75668094D02*
X179802619Y-75287142D01*
X179802619Y-75287142D02*
X179850238Y-75191904D01*
X179850238Y-75191904D02*
X179897857Y-75144285D01*
X179897857Y-75144285D02*
X179993095Y-75096666D01*
X179993095Y-75096666D02*
X180135952Y-75096666D01*
X180135952Y-75096666D02*
X180231190Y-75144285D01*
X180231190Y-75144285D02*
X180278809Y-75191904D01*
X180278809Y-75191904D02*
X180326428Y-75287142D01*
X180326428Y-75287142D02*
X180326428Y-75668094D01*
X180802619Y-74144285D02*
X180802619Y-74715713D01*
X180802619Y-74429999D02*
X179802619Y-74429999D01*
X179802619Y-74429999D02*
X179945476Y-74525237D01*
X179945476Y-74525237D02*
X180040714Y-74620475D01*
X180040714Y-74620475D02*
X180088333Y-74715713D01*
X120586667Y-66015000D02*
X120729524Y-66062619D01*
X120729524Y-66062619D02*
X120967619Y-66062619D01*
X120967619Y-66062619D02*
X121062857Y-66015000D01*
X121062857Y-66015000D02*
X121110476Y-65967380D01*
X121110476Y-65967380D02*
X121158095Y-65872142D01*
X121158095Y-65872142D02*
X121158095Y-65776904D01*
X121158095Y-65776904D02*
X121110476Y-65681666D01*
X121110476Y-65681666D02*
X121062857Y-65634047D01*
X121062857Y-65634047D02*
X120967619Y-65586428D01*
X120967619Y-65586428D02*
X120777143Y-65538809D01*
X120777143Y-65538809D02*
X120681905Y-65491190D01*
X120681905Y-65491190D02*
X120634286Y-65443571D01*
X120634286Y-65443571D02*
X120586667Y-65348333D01*
X120586667Y-65348333D02*
X120586667Y-65253095D01*
X120586667Y-65253095D02*
X120634286Y-65157857D01*
X120634286Y-65157857D02*
X120681905Y-65110238D01*
X120681905Y-65110238D02*
X120777143Y-65062619D01*
X120777143Y-65062619D02*
X121015238Y-65062619D01*
X121015238Y-65062619D02*
X121158095Y-65110238D01*
X121491429Y-65062619D02*
X121729524Y-66062619D01*
X121729524Y-66062619D02*
X121920000Y-65348333D01*
X121920000Y-65348333D02*
X122110476Y-66062619D01*
X122110476Y-66062619D02*
X122348572Y-65062619D01*
X123253333Y-66062619D02*
X122681905Y-66062619D01*
X122967619Y-66062619D02*
X122967619Y-65062619D01*
X122967619Y-65062619D02*
X122872381Y-65205476D01*
X122872381Y-65205476D02*
X122777143Y-65300714D01*
X122777143Y-65300714D02*
X122681905Y-65348333D01*
D11*
X118420000Y-79260000D02*
X118420000Y-80760000D01*
X119670000Y-83260000D02*
X124170000Y-83260000D01*
X124170000Y-76760000D02*
X119670000Y-76760000D01*
X125420000Y-80760000D02*
X125420000Y-79260000D01*
X116780000Y-87570000D02*
X118110000Y-87570000D01*
X116780000Y-88900000D02*
X116780000Y-87570000D01*
X116780000Y-90170000D02*
X116780000Y-135950000D01*
X116780000Y-90170000D02*
X119440000Y-90170000D01*
X116780000Y-135950000D02*
X119440000Y-135950000D01*
X119440000Y-90170000D02*
X119440000Y-135950000D01*
X189196000Y-73370000D02*
X189040000Y-73370000D01*
X186880000Y-73370000D02*
X186724000Y-73370000D01*
X189038608Y-76602334D02*
G75*
G03*
X189195515Y-73370001I-1078608J1672334D01*
G01*
X189039836Y-75971129D02*
G75*
G03*
X189039999Y-73889040I-1079836J1041129D01*
G01*
X186880001Y-73889040D02*
G75*
G03*
X186880164Y-75971129I1079999J-1040960D01*
G01*
X186724485Y-73370001D02*
G75*
G03*
X186881392Y-76602334I1235515J-1559999D01*
G01*
X187900000Y-87570000D02*
X189230000Y-87570000D01*
X187900000Y-88900000D02*
X187900000Y-87570000D01*
X187900000Y-90170000D02*
X187900000Y-135950000D01*
X187900000Y-90170000D02*
X190560000Y-90170000D01*
X187900000Y-135950000D02*
X190560000Y-135950000D01*
X190560000Y-90170000D02*
X190560000Y-135950000D01*
X177740000Y-87570000D02*
X179070000Y-87570000D01*
X177740000Y-88900000D02*
X177740000Y-87570000D01*
X177740000Y-90170000D02*
X177740000Y-135950000D01*
X177740000Y-90170000D02*
X180400000Y-90170000D01*
X177740000Y-135950000D02*
X180400000Y-135950000D01*
X180400000Y-90170000D02*
X180400000Y-135950000D01*
X182880000Y-70890000D02*
X182880000Y-71660000D01*
X184250000Y-71660000D02*
X181510000Y-71660000D01*
X181510000Y-71660000D02*
X181510000Y-78200000D01*
X184250000Y-78200000D02*
X184250000Y-71660000D01*
X181510000Y-78200000D02*
X184250000Y-78200000D01*
X182880000Y-78970000D02*
X182880000Y-78200000D01*
X118420000Y-69100000D02*
X118420000Y-70600000D01*
X119670000Y-73100000D02*
X124170000Y-73100000D01*
X124170000Y-66600000D02*
X119670000Y-66600000D01*
X125420000Y-70600000D02*
X125420000Y-69100000D01*
X126940000Y-87570000D02*
X128270000Y-87570000D01*
X126940000Y-88900000D02*
X126940000Y-87570000D01*
X126940000Y-90170000D02*
X126940000Y-135950000D01*
X126940000Y-90170000D02*
X129600000Y-90170000D01*
X126940000Y-135950000D02*
X129600000Y-135950000D01*
X129600000Y-90170000D02*
X129600000Y-135950000D01*
M02*
