M48
; DRILL file {KiCad 7.0.1-3b83917a11~172~ubuntu22.04.1} date 2023年04月09日 22時48分44秒
; FORMAT={-:-/ absolute / metric / decimal}
; #@! TF.CreationDate,2023-04-09T22:48:44+09:00
; #@! TF.GenerationSoftware,Kicad,Pcbnew,7.0.1-3b83917a11~172~ubuntu22.04.1
; #@! TF.FileFunction,MixedPlating,1,2
FMAT,2
METRIC
; #@! TA.AperFunction,Plated,PTH,ComponentDrill
T1C0.800
; #@! TA.AperFunction,Plated,PTH,ComponentDrill
T2C0.900
; #@! TA.AperFunction,Plated,PTH,ComponentDrill
T3C1.000
; #@! TA.AperFunction,Plated,PTH,ComponentDrill
T4C1.100
%
G90
G05
T1
X182.88Y-69.85
X182.88Y-80.01
T2
X187.96Y-73.66
X187.96Y-76.2
T3
X118.11Y-88.9
X118.11Y-91.44
X118.11Y-93.98
X118.11Y-96.52
X118.11Y-99.06
X118.11Y-101.6
X118.11Y-104.14
X118.11Y-106.68
X118.11Y-109.22
X118.11Y-111.76
X118.11Y-114.3
X118.11Y-116.84
X118.11Y-119.38
X118.11Y-121.92
X118.11Y-124.46
X118.11Y-127.0
X118.11Y-129.54
X118.11Y-132.08
X118.11Y-134.62
X121.92Y-88.9
X121.92Y-91.44
X121.92Y-93.98
X121.92Y-96.52
X121.92Y-99.06
X121.92Y-101.6
X121.92Y-104.14
X121.92Y-106.68
X121.92Y-109.22
X121.92Y-111.76
X121.92Y-114.3
X121.92Y-116.84
X121.92Y-119.38
X121.92Y-121.92
X121.92Y-124.46
X121.92Y-127.0
X121.92Y-129.54
X121.92Y-132.08
X121.92Y-134.62
X124.46Y-88.9
X124.46Y-91.44
X124.46Y-93.98
X124.46Y-96.52
X124.46Y-99.06
X124.46Y-101.6
X124.46Y-104.14
X124.46Y-106.68
X124.46Y-109.22
X124.46Y-111.76
X124.46Y-114.3
X124.46Y-116.84
X124.46Y-119.38
X124.46Y-121.92
X124.46Y-124.46
X124.46Y-127.0
X124.46Y-129.54
X124.46Y-132.08
X124.46Y-134.62
X128.27Y-88.9
X128.27Y-91.44
X128.27Y-93.98
X128.27Y-96.52
X128.27Y-99.06
X128.27Y-101.6
X128.27Y-104.14
X128.27Y-106.68
X128.27Y-109.22
X128.27Y-111.76
X128.27Y-114.3
X128.27Y-116.84
X128.27Y-119.38
X128.27Y-121.92
X128.27Y-124.46
X128.27Y-127.0
X128.27Y-129.54
X128.27Y-132.08
X128.27Y-134.62
X132.08Y-66.04
X132.08Y-68.58
X132.08Y-71.12
X132.08Y-73.66
X132.08Y-76.2
X132.08Y-78.74
X132.08Y-81.28
X132.08Y-83.82
X132.08Y-86.36
X132.08Y-88.9
X132.08Y-91.44
X132.08Y-93.98
X132.08Y-96.52
X132.08Y-99.06
X132.08Y-101.6
X132.08Y-104.14
X132.08Y-106.68
X132.08Y-109.22
X132.08Y-111.76
X132.08Y-114.3
X132.08Y-116.84
X132.08Y-119.38
X132.08Y-121.92
X132.08Y-124.46
X132.08Y-127.0
X132.08Y-129.54
X132.08Y-132.08
X132.08Y-134.62
X134.62Y-66.04
X134.62Y-68.58
X134.62Y-71.12
X134.62Y-73.66
X134.62Y-76.2
X134.62Y-78.74
X134.62Y-81.28
X134.62Y-83.82
X134.62Y-86.36
X134.62Y-88.9
X134.62Y-91.44
X134.62Y-93.98
X134.62Y-96.52
X134.62Y-99.06
X134.62Y-101.6
X134.62Y-104.14
X134.62Y-106.68
X134.62Y-109.22
X134.62Y-111.76
X134.62Y-114.3
X134.62Y-116.84
X134.62Y-119.38
X134.62Y-121.92
X134.62Y-124.46
X134.62Y-127.0
X134.62Y-129.54
X134.62Y-132.08
X134.62Y-134.62
X137.16Y-66.04
X137.16Y-68.58
X137.16Y-71.12
X137.16Y-73.66
X137.16Y-76.2
X137.16Y-78.74
X137.16Y-81.28
X137.16Y-83.82
X137.16Y-86.36
X137.16Y-88.9
X137.16Y-91.44
X137.16Y-93.98
X137.16Y-96.52
X137.16Y-99.06
X137.16Y-101.6
X137.16Y-104.14
X137.16Y-106.68
X137.16Y-109.22
X137.16Y-111.76
X137.16Y-114.3
X137.16Y-116.84
X137.16Y-119.38
X137.16Y-121.92
X137.16Y-124.46
X137.16Y-127.0
X137.16Y-129.54
X137.16Y-132.08
X137.16Y-134.62
X139.7Y-66.04
X139.7Y-68.58
X139.7Y-71.12
X139.7Y-73.66
X139.7Y-76.2
X139.7Y-78.74
X139.7Y-81.28
X139.7Y-83.82
X139.7Y-86.36
X139.7Y-88.9
X139.7Y-91.44
X139.7Y-93.98
X139.7Y-96.52
X139.7Y-99.06
X139.7Y-101.6
X139.7Y-104.14
X139.7Y-106.68
X139.7Y-109.22
X139.7Y-111.76
X139.7Y-114.3
X139.7Y-116.84
X139.7Y-119.38
X139.7Y-121.92
X139.7Y-124.46
X139.7Y-127.0
X139.7Y-129.54
X139.7Y-132.08
X139.7Y-134.62
X142.24Y-66.04
X142.24Y-68.58
X142.24Y-71.12
X142.24Y-73.66
X142.24Y-76.2
X142.24Y-78.74
X142.24Y-81.28
X142.24Y-83.82
X142.24Y-86.36
X142.24Y-88.9
X142.24Y-91.44
X142.24Y-93.98
X142.24Y-96.52
X142.24Y-99.06
X142.24Y-101.6
X142.24Y-104.14
X142.24Y-106.68
X142.24Y-109.22
X142.24Y-111.76
X142.24Y-114.3
X142.24Y-116.84
X142.24Y-119.38
X142.24Y-121.92
X142.24Y-124.46
X142.24Y-127.0
X142.24Y-129.54
X142.24Y-132.08
X142.24Y-134.62
X144.78Y-66.04
X144.78Y-68.58
X144.78Y-71.12
X144.78Y-73.66
X144.78Y-76.2
X144.78Y-78.74
X144.78Y-81.28
X144.78Y-83.82
X144.78Y-86.36
X144.78Y-88.9
X144.78Y-91.44
X144.78Y-93.98
X144.78Y-96.52
X144.78Y-99.06
X144.78Y-101.6
X144.78Y-104.14
X144.78Y-106.68
X144.78Y-109.22
X144.78Y-111.76
X144.78Y-114.3
X144.78Y-116.84
X144.78Y-119.38
X144.78Y-121.92
X144.78Y-124.46
X144.78Y-127.0
X144.78Y-129.54
X144.78Y-132.08
X144.78Y-134.62
X147.32Y-66.04
X147.32Y-68.58
X147.32Y-71.12
X147.32Y-73.66
X147.32Y-76.2
X147.32Y-78.74
X147.32Y-81.28
X147.32Y-83.82
X147.32Y-86.36
X147.32Y-88.9
X147.32Y-91.44
X147.32Y-93.98
X147.32Y-96.52
X147.32Y-99.06
X147.32Y-101.6
X147.32Y-104.14
X147.32Y-106.68
X147.32Y-109.22
X147.32Y-111.76
X147.32Y-114.3
X147.32Y-116.84
X147.32Y-119.38
X147.32Y-121.92
X147.32Y-124.46
X147.32Y-127.0
X147.32Y-129.54
X147.32Y-132.08
X147.32Y-134.62
X149.86Y-66.04
X149.86Y-68.58
X149.86Y-71.12
X149.86Y-73.66
X149.86Y-76.2
X149.86Y-78.74
X149.86Y-81.28
X149.86Y-83.82
X149.86Y-86.36
X149.86Y-88.9
X149.86Y-91.44
X149.86Y-93.98
X149.86Y-96.52
X149.86Y-99.06
X149.86Y-101.6
X149.86Y-104.14
X149.86Y-106.68
X149.86Y-109.22
X149.86Y-111.76
X149.86Y-114.3
X149.86Y-116.84
X149.86Y-119.38
X149.86Y-121.92
X149.86Y-124.46
X149.86Y-127.0
X149.86Y-129.54
X149.86Y-132.08
X149.86Y-134.62
X152.4Y-66.04
X152.4Y-68.58
X152.4Y-71.12
X152.4Y-73.66
X152.4Y-76.2
X152.4Y-78.74
X152.4Y-81.28
X152.4Y-83.82
X152.4Y-86.36
X152.4Y-88.9
X152.4Y-91.44
X152.4Y-93.98
X152.4Y-96.52
X152.4Y-99.06
X152.4Y-101.6
X152.4Y-104.14
X152.4Y-106.68
X152.4Y-109.22
X152.4Y-111.76
X152.4Y-114.3
X152.4Y-116.84
X152.4Y-119.38
X152.4Y-121.92
X152.4Y-124.46
X152.4Y-127.0
X152.4Y-129.54
X152.4Y-132.08
X152.4Y-134.62
X154.94Y-66.04
X154.94Y-68.58
X154.94Y-71.12
X154.94Y-73.66
X154.94Y-76.2
X154.94Y-78.74
X154.94Y-81.28
X154.94Y-83.82
X154.94Y-86.36
X154.94Y-88.9
X154.94Y-91.44
X154.94Y-93.98
X154.94Y-96.52
X154.94Y-99.06
X154.94Y-101.6
X154.94Y-104.14
X154.94Y-106.68
X154.94Y-109.22
X154.94Y-111.76
X154.94Y-114.3
X154.94Y-116.84
X154.94Y-119.38
X154.94Y-121.92
X154.94Y-124.46
X154.94Y-127.0
X154.94Y-129.54
X154.94Y-132.08
X154.94Y-134.62
X157.48Y-66.04
X157.48Y-68.58
X157.48Y-71.12
X157.48Y-73.66
X157.48Y-76.2
X157.48Y-78.74
X157.48Y-81.28
X157.48Y-83.82
X157.48Y-86.36
X157.48Y-88.9
X157.48Y-91.44
X157.48Y-93.98
X157.48Y-96.52
X157.48Y-99.06
X157.48Y-101.6
X157.48Y-104.14
X157.48Y-106.68
X157.48Y-109.22
X157.48Y-111.76
X157.48Y-114.3
X157.48Y-116.84
X157.48Y-119.38
X157.48Y-121.92
X157.48Y-124.46
X157.48Y-127.0
X157.48Y-129.54
X157.48Y-132.08
X157.48Y-134.62
X160.02Y-66.04
X160.02Y-68.58
X160.02Y-71.12
X160.02Y-73.66
X160.02Y-76.2
X160.02Y-78.74
X160.02Y-81.28
X160.02Y-83.82
X160.02Y-86.36
X160.02Y-88.9
X160.02Y-91.44
X160.02Y-93.98
X160.02Y-96.52
X160.02Y-99.06
X160.02Y-101.6
X160.02Y-104.14
X160.02Y-106.68
X160.02Y-109.22
X160.02Y-111.76
X160.02Y-114.3
X160.02Y-116.84
X160.02Y-119.38
X160.02Y-121.92
X160.02Y-124.46
X160.02Y-127.0
X160.02Y-129.54
X160.02Y-132.08
X160.02Y-134.62
X162.56Y-66.04
X162.56Y-68.58
X162.56Y-71.12
X162.56Y-73.66
X162.56Y-76.2
X162.56Y-78.74
X162.56Y-81.28
X162.56Y-83.82
X162.56Y-86.36
X162.56Y-88.9
X162.56Y-91.44
X162.56Y-93.98
X162.56Y-96.52
X162.56Y-99.06
X162.56Y-101.6
X162.56Y-104.14
X162.56Y-106.68
X162.56Y-109.22
X162.56Y-111.76
X162.56Y-114.3
X162.56Y-116.84
X162.56Y-119.38
X162.56Y-121.92
X162.56Y-124.46
X162.56Y-127.0
X162.56Y-129.54
X162.56Y-132.08
X162.56Y-134.62
X165.1Y-66.04
X165.1Y-68.58
X165.1Y-71.12
X165.1Y-73.66
X165.1Y-76.2
X165.1Y-78.74
X165.1Y-81.28
X165.1Y-83.82
X165.1Y-86.36
X165.1Y-88.9
X165.1Y-91.44
X165.1Y-93.98
X165.1Y-96.52
X165.1Y-99.06
X165.1Y-101.6
X165.1Y-104.14
X165.1Y-106.68
X165.1Y-109.22
X165.1Y-111.76
X165.1Y-114.3
X165.1Y-116.84
X165.1Y-119.38
X165.1Y-121.92
X165.1Y-124.46
X165.1Y-127.0
X165.1Y-129.54
X165.1Y-132.08
X165.1Y-134.62
X167.64Y-66.04
X167.64Y-68.58
X167.64Y-71.12
X167.64Y-73.66
X167.64Y-76.2
X167.64Y-78.74
X167.64Y-81.28
X167.64Y-83.82
X167.64Y-86.36
X167.64Y-88.9
X167.64Y-91.44
X167.64Y-93.98
X167.64Y-96.52
X167.64Y-99.06
X167.64Y-101.6
X167.64Y-104.14
X167.64Y-106.68
X167.64Y-109.22
X167.64Y-111.76
X167.64Y-114.3
X167.64Y-116.84
X167.64Y-119.38
X167.64Y-121.92
X167.64Y-124.46
X167.64Y-127.0
X167.64Y-129.54
X167.64Y-132.08
X167.64Y-134.62
X170.18Y-66.04
X170.18Y-68.58
X170.18Y-71.12
X170.18Y-73.66
X170.18Y-76.2
X170.18Y-78.74
X170.18Y-81.28
X170.18Y-83.82
X170.18Y-86.36
X170.18Y-88.9
X170.18Y-91.44
X170.18Y-93.98
X170.18Y-96.52
X170.18Y-99.06
X170.18Y-101.6
X170.18Y-104.14
X170.18Y-106.68
X170.18Y-109.22
X170.18Y-111.76
X170.18Y-114.3
X170.18Y-116.84
X170.18Y-119.38
X170.18Y-121.92
X170.18Y-124.46
X170.18Y-127.0
X170.18Y-129.54
X170.18Y-132.08
X170.18Y-134.62
X172.72Y-66.04
X172.72Y-68.58
X172.72Y-71.12
X172.72Y-73.66
X172.72Y-76.2
X172.72Y-78.74
X172.72Y-81.28
X172.72Y-83.82
X172.72Y-86.36
X172.72Y-88.9
X172.72Y-91.44
X172.72Y-93.98
X172.72Y-96.52
X172.72Y-99.06
X172.72Y-101.6
X172.72Y-104.14
X172.72Y-106.68
X172.72Y-109.22
X172.72Y-111.76
X172.72Y-114.3
X172.72Y-116.84
X172.72Y-119.38
X172.72Y-121.92
X172.72Y-124.46
X172.72Y-127.0
X172.72Y-129.54
X172.72Y-132.08
X172.72Y-134.62
X175.26Y-66.04
X175.26Y-68.58
X175.26Y-71.12
X175.26Y-73.66
X175.26Y-76.2
X175.26Y-78.74
X175.26Y-81.28
X175.26Y-83.82
X175.26Y-86.36
X175.26Y-88.9
X175.26Y-91.44
X175.26Y-93.98
X175.26Y-96.52
X175.26Y-99.06
X175.26Y-101.6
X175.26Y-104.14
X175.26Y-106.68
X175.26Y-109.22
X175.26Y-111.76
X175.26Y-114.3
X175.26Y-116.84
X175.26Y-119.38
X175.26Y-121.92
X175.26Y-124.46
X175.26Y-127.0
X175.26Y-129.54
X175.26Y-132.08
X175.26Y-134.62
X179.07Y-88.9
X179.07Y-91.44
X179.07Y-93.98
X179.07Y-96.52
X179.07Y-99.06
X179.07Y-101.6
X179.07Y-104.14
X179.07Y-106.68
X179.07Y-109.22
X179.07Y-111.76
X179.07Y-114.3
X179.07Y-116.84
X179.07Y-119.38
X179.07Y-121.92
X179.07Y-124.46
X179.07Y-127.0
X179.07Y-129.54
X179.07Y-132.08
X179.07Y-134.62
X182.88Y-88.9
X182.88Y-91.44
X182.88Y-93.98
X182.88Y-96.52
X182.88Y-99.06
X182.88Y-101.6
X182.88Y-104.14
X182.88Y-106.68
X182.88Y-109.22
X182.88Y-111.76
X182.88Y-114.3
X182.88Y-116.84
X182.88Y-119.38
X182.88Y-121.92
X182.88Y-124.46
X182.88Y-127.0
X182.88Y-129.54
X182.88Y-132.08
X182.88Y-134.62
X185.42Y-88.9
X185.42Y-91.44
X185.42Y-93.98
X185.42Y-96.52
X185.42Y-99.06
X185.42Y-101.6
X185.42Y-104.14
X185.42Y-106.68
X185.42Y-109.22
X185.42Y-111.76
X185.42Y-114.3
X185.42Y-116.84
X185.42Y-119.38
X185.42Y-121.92
X185.42Y-124.46
X185.42Y-127.0
X185.42Y-129.54
X185.42Y-132.08
X185.42Y-134.62
X189.23Y-88.9
X189.23Y-91.44
X189.23Y-93.98
X189.23Y-96.52
X189.23Y-99.06
X189.23Y-101.6
X189.23Y-104.14
X189.23Y-106.68
X189.23Y-109.22
X189.23Y-111.76
X189.23Y-114.3
X189.23Y-116.84
X189.23Y-119.38
X189.23Y-121.92
X189.23Y-124.46
X189.23Y-127.0
X189.23Y-129.54
X189.23Y-132.08
X189.23Y-134.62
T4
X118.67Y-67.6
X118.67Y-72.1
X118.67Y-77.76
X118.67Y-82.26
X125.17Y-67.6
X125.17Y-72.1
X125.17Y-77.76
X125.17Y-82.26
T0
M30
